<?xml version="1.0" encoding="UTF-8"?>
<svg width="18px" height="16px" viewBox="0 0 18 16" version="1.1" xmlns="http://www.w3.org/2000/svg" xmlns:xlink="http://www.w3.org/1999/xlink">
    <title>Shape</title>
    <g id="Page-1" stroke="none" stroke-width="1" fill="none" fill-rule="evenodd">
        <g id="Avis-d'un-jeu" transform="translate(-15.000000, -21.000000)" fill="#FFFFFF" fill-rule="nonzero">
            <g id="Header-Bar" transform="translate(0.000000, -18.000000)">
                <path d="M22.470703,39.486328 C22.0811443,39.4976813 21.7112943,39.6601912 21.439453,39.939453 L15.439453,45.939453 C14.8539002,46.5252478 14.8539002,47.4747522 15.439453,48.060547 L21.439453,54.060547 C21.8156812,54.4523935 22.3743497,54.6102344 22.9000037,54.4731972 C23.4256577,54.33616 23.83616,53.9256577 23.9731972,53.4000037 C24.1102344,52.8743497 23.9523935,52.3156812 23.560547,51.939453 L20.121094,48.5 L31.5,48.5 C32.0409539,48.5076504 32.544122,48.2234371 32.8168316,47.7561907 C33.0895411,47.2889444 33.0895411,46.7110556 32.8168316,46.2438093 C32.544122,45.7765629 32.0409539,45.4923496 31.5,45.5 L20.121094,45.5 L23.560547,42.060547 C24.0034486,41.629199 24.1363675,40.9703166 23.8953348,40.4009958 C23.6543022,39.831675 23.0886886,39.4685295 22.470703,39.486328 Z" id="Shape"></path>
            </g>
        </g>
    </g>
</svg>