<?xml version="1.0" encoding="utf-8"?>
<svg width="361.04968px" height="761.9508px" viewBox="0 0 361.04968 761.9508" version="1.1" xmlns:xlink="http://www.w3.org/1999/xlink" xmlns="http://www.w3.org/2000/svg">
  <g id="Bg-Pattern" transform="translate(0.0021972656 0)" opacity="0.5">
    <g id="Group-13">
      <g id="Group-13">
        <g id="Group" opacity="0.22999999">
          <path d="M352.762 59.9844C350.898 58.8641 348.481 59.4617 347.365 61.3193C346.249 63.1768 346.856 65.5909 348.72 66.7113C350.585 67.8316 353.001 67.234 354.117 65.3764C355.234 63.5189 354.627 61.1048 352.762 59.9844Z" id="Oval-6" fill="none" fill-rule="evenodd" stroke="#636AF6" stroke-opacity="0.91" stroke-width="1.172232" />
          <path d="M252.645 39.0804C251.428 37.277 248.986 36.7974 247.189 38.0092C245.393 39.2211 244.922 41.6654 246.139 43.4688C247.355 45.2722 249.798 45.7517 251.594 44.5399C253.391 43.3281 253.861 40.8838 252.645 39.0804Z" id="Oval-6" fill="none" fill-rule="evenodd" stroke="#636AF6" stroke-opacity="0.72" stroke-width="1.172232" />
          <path d="M258.386 19.1159C259.094 21.1727 258.007 23.412 255.958 24.1175C253.909 24.8231 251.674 23.7277 250.965 21.6709C250.257 19.6142 251.344 17.3749 253.393 16.6693C255.442 15.9638 257.677 17.0592 258.386 19.1159Z" id="Oval-6" fill="none" fill-rule="evenodd" stroke="#636AF6" stroke-opacity="0.74" stroke-width="1.172232" />
          <path d="M193.653 96.3303C193.339 98.1155 191.642 99.3085 189.863 98.9949C188.085 98.6813 186.898 96.9799 187.213 95.1947C187.528 93.4095 189.225 92.2165 191.003 92.5301C192.782 92.8437 193.968 94.5451 193.653 96.3303Z" id="Oval-6" fill="none" fill-rule="evenodd" stroke="#636AF6" stroke-opacity="0.86" stroke-width="1.172232" />
          <path d="M186.363 61.2311C188.053 59.8622 190.529 60.1177 191.893 61.8018C193.257 63.486 192.992 65.961 191.302 67.33C189.611 68.6989 187.135 68.4434 185.771 66.7592C184.408 65.0751 184.672 62.6001 186.363 61.2311Z" id="Oval-6" fill="none" fill-rule="evenodd" stroke="#636AF6" stroke-opacity="0.84" stroke-width="1.172232" />
          <path d="M179.15 3.26381C181.088 2.27625 183.457 3.04098 184.441 4.97189C185.425 6.90279 184.651 9.26868 182.713 10.2562C180.774 11.2438 178.406 10.4791 177.422 8.54815C176.438 6.61725 177.212 4.25137 179.15 3.26381Z" id="Oval-6" fill="none" fill-rule="evenodd" stroke="#636AF6" stroke-opacity="0.91" stroke-width="1.172232" />
          <path d="M132.399 102.56C132.022 100.417 133.445 98.3756 135.58 97.9993C137.714 97.623 139.75 99.0545 140.128 101.197C140.506 103.339 139.082 105.381 136.948 105.757C134.813 106.133 132.777 104.702 132.399 102.56Z" id="Oval-6" fill="none" fill-rule="evenodd" stroke="#636AF6" stroke-opacity="0.83" stroke-width="1.172232" />
          <path d="M145.286 47.4208C145.922 45.3406 144.758 43.1406 142.685 42.507C140.613 41.8734 138.417 43.0461 137.781 45.1264C137.145 47.2066 138.31 49.4066 140.382 50.0402C142.455 50.6738 144.65 49.5011 145.286 47.4208Z" id="Oval-6" fill="none" fill-rule="evenodd" stroke="#636AF6" stroke-opacity="0.77" stroke-width="1.172232" />
          <path d="M130.555 3.20611C132.315 4.48471 132.709 6.94249 131.435 8.69572C130.161 10.4489 127.702 10.8337 125.942 9.55511C124.182 8.27651 123.788 5.81873 125.062 4.0655C126.336 2.31227 128.795 1.92752 130.555 3.20611Z" id="Oval-6" fill="none" fill-rule="evenodd" stroke="#636AF6" stroke-opacity="0.91" stroke-width="1.172232" />
          <path d="M72.709 110.394C74.3382 111.189 75.0173 113.149 74.2256 114.772C73.4339 116.395 71.4714 117.067 69.8421 116.272C68.2128 115.477 67.5338 113.517 68.3255 111.894C69.1171 110.271 71.0797 109.599 72.709 110.394Z" id="Oval-6" fill="none" fill-rule="evenodd" stroke="#636AF6" stroke-opacity="0.84" stroke-width="1.172232" />
          <path d="M93.0174 100.291C91.9049 98.01 89.1609 97.0594 86.8885 98.1677C84.6161 99.276 83.6758 102.024 84.7883 104.305C85.9008 106.586 88.6448 107.536 90.9173 106.428C93.1897 105.32 94.13 102.572 93.0174 100.291Z" id="Oval-6" fill="none" fill-rule="evenodd" stroke="#636AF6" stroke-opacity="0.79" stroke-width="1.172232" />
          <path d="M63.6924 79.7788C63.2846 81.5451 64.3805 83.3062 66.1402 83.7125C67.8998 84.1187 69.6568 83.0162 70.0646 81.2499C70.4724 79.4836 69.3765 77.7225 67.6169 77.3162C65.8572 76.91 64.1002 78.0125 63.6924 79.7788Z" id="Oval-6" fill="none" fill-rule="evenodd" stroke="#636AF6" stroke-opacity="0.97" stroke-width="1.172232" />
          <path d="M58.3931 6.07776C57.4395 8.03289 58.2454 10.388 60.1932 11.338C62.141 12.288 64.493 11.4731 65.4466 9.518C66.4002 7.56286 65.5942 5.20779 63.6465 4.2578C61.6987 3.3078 59.3467 4.12262 58.3931 6.07776Z" id="Oval-6" fill="none" fill-rule="evenodd" stroke="#636AF6" stroke-opacity="0.85" stroke-width="1.172232" />
          <path d="M25.4056 99.9253C23.6915 101.265 21.2203 100.966 19.8861 99.2582C18.5519 97.5505 18.8599 95.0804 20.5741 93.7412C22.2882 92.402 24.7594 92.7007 26.0936 94.4084C27.4278 96.1161 27.1198 98.5861 25.4056 99.9253Z" id="Oval-6" fill="none" fill-rule="evenodd" stroke="#636AF6" stroke-opacity="0.97" stroke-width="1.172232" />
          <path d="M27.6818 59.1296C27.304 61.2718 25.2677 62.7034 23.1335 62.3271C20.9994 61.9508 19.5755 59.9091 19.9532 57.7668C20.3309 55.6246 22.3673 54.193 24.5014 54.5694C26.6356 54.9457 28.0595 56.9874 27.6818 59.1296Z" id="Oval-6" fill="none" fill-rule="evenodd" stroke="#636AF6" stroke-opacity="0.74" stroke-width="1.172232" />
          <path d="M354.013 121.712L355.738 123.042L355.747 120.871L357.547 119.649L355.477 118.967L354.865 116.882L353.577 118.632L351.398 118.565L352.672 120.329L351.938 122.372L354.013 121.712Z" id="Star-2" fill="none" fill-rule="evenodd" stroke="#0076FF" stroke-width="1.172232" />
          <path d="M297.099 42.9535L298.762 43.4733L297.343 44.4755L297.368 46.2158L295.972 45.1723L294.324 45.7281L294.88 44.081L293.837 42.6842L295.577 42.7097L296.579 41.2906L297.099 42.9535Z" id="Star-2" fill="none" fill-rule="evenodd" stroke="#0076FF" stroke-opacity="0.71" stroke-width="1.172232" />
          <path d="M193.687 78.49L194.829 80.3441L192.669 80.1258L191.265 81.7886L190.803 79.6586L188.794 78.8322L190.669 77.7341L190.83 75.5606L192.451 77.0118L194.56 76.495L193.687 78.49Z" id="Star-2" fill="none" fill-rule="evenodd" stroke="#0076FF" stroke-opacity="0.73" stroke-width="1.172232" />
          <path d="M121.718 59.8344L119.655 59.1382L120.353 61.1944L119.049 62.9356L121.228 62.9065L122.485 64.6789L123.134 62.6047L125.215 61.9589L123.436 60.706L123.466 58.5346L121.718 59.8344Z" id="Star-2" fill="none" fill-rule="evenodd" stroke="#0076FF" stroke-opacity="0.83" stroke-width="1.172232" />
          <path d="M73.133 61.1617L71.7343 58.954L70.8331 61.3992L68.3017 62.0379L70.3559 63.6566L70.1901 66.259L72.3609 64.8141L74.7898 65.7838L74.0772 63.2722L75.7442 61.2691L73.133 61.1617Z" id="Star-2" fill="none" fill-rule="evenodd" stroke="#0076FF" stroke-opacity="0.92" stroke-width="1.172232" />
          <path d="M70.8356 19.9919L69.1045 21.3134L71.1999 21.8839L71.9139 23.939L73.1085 22.1161L75.281 22.0648L73.9239 20.3676L74.5524 18.2808L72.5191 19.0548L70.7352 17.8163L70.8356 19.9919Z" id="Star-2" fill="none" fill-rule="evenodd" stroke="#0076FF" stroke-opacity="0.82" stroke-width="1.172232" />
          <path d="M2.995 113.946L1.40778 113.227L2.93845 112.405L3.12521 110.675L4.38442 111.881L6.08707 111.53L5.33464 113.097L6.20017 114.611L4.47593 114.373L3.30821 115.66L2.995 113.946Z" id="Star-2" fill="none" fill-rule="evenodd" stroke="#0076FF" stroke-opacity="0.71" stroke-width="1.172232" />
          <path d="M27.374 41.0684L26.1937 39.7868L27.9238 39.6284L28.7718 38.1084L29.4597 39.7106L31.1641 40.0528L29.8592 41.2014L30.0645 42.9328L28.5701 42.0406L26.9926 42.7684L27.374 41.0684Z" id="Star-2" fill="none" fill-rule="evenodd" stroke="#0076FF" stroke-opacity="0.87" stroke-width="1.172232" />
          <path d="M9.04449 20.8722L7.84202 22.133L9.56909 22.3216L10.3905 23.8561L11.1062 22.2662L12.8164 21.9538L11.5317 20.7826L11.7672 19.055L10.2574 19.9211L8.69286 19.1658L9.04449 20.8722Z" id="Star-2" fill="none" fill-rule="evenodd" stroke="#0076FF" stroke-opacity="0.71" stroke-width="1.172232" />
          <path d="M345.712 75.589L345.921 78.6647L348.907 79.4056L350.543 76.7879L348.568 74.4291L345.712 75.589Z" id="Polygon" fill="none" fill-rule="evenodd" stroke="#FF004F" stroke-opacity="0.7" stroke-width="1.172232" />
          <path d="M353.172 19.3448L352.589 22.372L349.535 22.7436L348.231 19.946L350.478 17.8454L353.172 19.3448Z" id="Polygon" fill="none" fill-rule="evenodd" stroke="#FF004F" stroke-opacity="0.98" stroke-width="1.172232" />
          <path d="M231.498 65.8281L234.581 65.8874L235.579 62.9776L233.114 61.1199L230.592 62.8816L231.498 65.8281Z" id="Polygon" fill="none" fill-rule="evenodd" stroke="#FF004F" stroke-opacity="0.82" stroke-width="1.172232" />
          <path d="M185.339 23.2256L187.622 22.8598L188.667 24.9167L187.03 26.5538L184.973 25.5086L185.339 23.2256Z" id="Polygon" fill="none" fill-rule="evenodd" stroke="#FF004F" stroke-opacity="0.71" stroke-width="1.172232" />
          <path d="M141.461 116.125L143.352 114.796L145.193 116.186L144.439 118.375L142.133 118.338L141.461 116.125Z" id="Polygon" fill="none" fill-rule="evenodd" stroke="#FF004F" stroke-opacity="0.83" stroke-width="1.172232" />
          <path d="M121.807 28.3193L123.834 25.9963L122.246 23.3611L119.239 24.0555L118.967 27.1198L121.807 28.3193Z" id="Polygon" fill="none" fill-rule="evenodd" stroke="#FF004F" stroke-opacity="0.77" stroke-width="1.172232" />
          <path d="M33.0529 78.6139L30.2613 77.306L28.1657 79.5582L29.6623 82.258L32.6827 81.6743L33.0529 78.6139Z" id="Polygon" fill="none" fill-rule="evenodd" stroke="#FF004F" stroke-opacity="0.87" stroke-width="1.172232" />
          <path d="M353.295 95.2425L355.897 91.7064L357.685 95.2158L353.295 95.2425Z" id="Triangle" fill="none" fill-rule="evenodd" stroke="#04BD68" stroke-opacity="0.74" stroke-width="1.172232" />
          <path d="M359.473 41.4461L355.144 40.71L356.296 44.4766L359.473 41.4461Z" id="Triangle" fill="none" fill-rule="evenodd" stroke="#04BD68" stroke-opacity="0.88" stroke-width="1.172232" />
          <path d="M308.822 113.317L313.15 114.053L311.999 110.287L308.822 113.317Z" id="Triangle" fill="none" fill-rule="evenodd" stroke="#04BD68" stroke-opacity="0.76" stroke-width="1.172232" />
          <path d="M305.328 93.0377L308.017 98.2372L311.104 93.9886L305.328 93.0377Z" id="Triangle" fill="none" fill-rule="evenodd" stroke="#04BD68" stroke-opacity="0.76" stroke-width="1.172232" />
          <path d="M294.273 74.3578L291.044 77.3324L289.958 73.5463L294.273 74.3578Z" id="Triangle" fill="none" fill-rule="evenodd" stroke="#04BD68" stroke-opacity="0.85" stroke-width="1.172232" />
          <path d="M309.696 61.3193L315.488 60.4694L312.476 56.1675L309.696 61.3193Z" id="Triangle" fill="none" fill-rule="evenodd" stroke="#04BD68" stroke-opacity="0.87" stroke-width="1.172232" />
          <path d="M308.272 22.8844L311.742 27.5992L314.126 22.92L308.272 22.8844Z" id="Triangle" fill="none" fill-rule="evenodd" stroke="#04BD68" stroke-opacity="0.92" stroke-width="1.172232" />
          <path d="M253.919 113.614L250.03 111.577L249.961 115.515L253.919 113.614Z" id="Triangle" fill="none" fill-rule="evenodd" stroke="#04BD68" stroke-opacity="0.7" stroke-width="1.172232" />
          <path d="M256.533 95.2146L261.478 98.3468L256.976 101.052L256.533 95.2146Z" id="Triangle" fill="none" fill-rule="evenodd" stroke="#04BD68" stroke-opacity="0.97" stroke-width="1.172232" />
          <path d="M231.254 83.1763L230.367 78.8764L234.172 79.8958L231.254 83.1763Z" id="Triangle" fill="none" fill-rule="evenodd" stroke="#04BD68" stroke-opacity="0.79" stroke-width="1.172232" />
          <path d="M198.587 113.123L194.597 111.292L194.734 115.228L198.587 113.123Z" id="Triangle" fill="none" fill-rule="evenodd" stroke="#04BD68" stroke-width="1.172232" />
          <path d="M186.092 40.6812L185.583 45.042L189.284 43.6949L186.092 40.6812Z" id="Triangle" fill="none" fill-rule="evenodd" stroke="#04BD68" stroke-opacity="0.78" stroke-width="1.172232" />
          <path d="M118.063 78.1513L120.496 81.8059L116.587 82.2859L118.063 78.1513Z" id="Triangle" fill="none" fill-rule="evenodd" stroke="#04BD68" stroke-opacity="0.86" stroke-width="1.172232" />
          <path d="M90.1426 43.7769L84.7682 41.4569L88.7911 38.0812L90.1426 43.7769Z" id="Triangle" fill="none" fill-rule="evenodd" stroke="#04BD68" stroke-opacity="0.88" stroke-width="1.172232" />
        </g>
        <g id="Group-Copy" transform="translate(0 128.94551)" opacity="0.22999999">
          <path d="M352.762 59.9844C350.898 58.8641 348.481 59.4617 347.365 61.3193C346.249 63.1768 346.856 65.5909 348.72 66.7113C350.585 67.8316 353.001 67.234 354.117 65.3764C355.234 63.5189 354.627 61.1048 352.762 59.9844Z" id="Oval-6" fill="none" fill-rule="evenodd" stroke="#636AF6" stroke-opacity="0.91" stroke-width="1.172232" />
          <path d="M252.645 39.0804C251.428 37.277 248.986 36.7974 247.189 38.0092C245.393 39.2211 244.922 41.6654 246.139 43.4688C247.355 45.2722 249.798 45.7517 251.594 44.5399C253.391 43.3281 253.861 40.8838 252.645 39.0804Z" id="Oval-6" fill="none" fill-rule="evenodd" stroke="#636AF6" stroke-opacity="0.72" stroke-width="1.172232" />
          <path d="M258.386 19.1159C259.094 21.1727 258.007 23.412 255.958 24.1175C253.909 24.8231 251.674 23.7277 250.965 21.6709C250.257 19.6142 251.344 17.3749 253.393 16.6693C255.442 15.9638 257.677 17.0592 258.386 19.1159Z" id="Oval-6" fill="none" fill-rule="evenodd" stroke="#636AF6" stroke-opacity="0.74" stroke-width="1.172232" />
          <path d="M193.653 96.3303C193.339 98.1155 191.642 99.3085 189.863 98.9949C188.085 98.6813 186.898 96.9799 187.213 95.1947C187.528 93.4095 189.225 92.2165 191.003 92.5301C192.782 92.8437 193.968 94.5451 193.653 96.3303Z" id="Oval-6" fill="none" fill-rule="evenodd" stroke="#636AF6" stroke-opacity="0.86" stroke-width="1.172232" />
          <path d="M186.363 61.2311C188.053 59.8622 190.529 60.1177 191.893 61.8018C193.257 63.486 192.992 65.961 191.302 67.33C189.611 68.6989 187.135 68.4434 185.771 66.7592C184.408 65.0751 184.672 62.6001 186.363 61.2311Z" id="Oval-6" fill="none" fill-rule="evenodd" stroke="#636AF6" stroke-opacity="0.84" stroke-width="1.172232" />
          <path d="M179.15 3.26381C181.088 2.27625 183.457 3.04098 184.441 4.97189C185.425 6.90279 184.651 9.26868 182.713 10.2562C180.774 11.2438 178.406 10.4791 177.422 8.54815C176.438 6.61725 177.212 4.25137 179.15 3.26381Z" id="Oval-6" fill="none" fill-rule="evenodd" stroke="#636AF6" stroke-opacity="0.91" stroke-width="1.172232" />
          <path d="M132.399 102.56C132.022 100.417 133.445 98.3756 135.58 97.9993C137.714 97.623 139.75 99.0545 140.128 101.197C140.506 103.339 139.082 105.381 136.948 105.757C134.813 106.133 132.777 104.702 132.399 102.56Z" id="Oval-6" fill="none" fill-rule="evenodd" stroke="#636AF6" stroke-opacity="0.83" stroke-width="1.172232" />
          <path d="M145.286 47.4208C145.922 45.3406 144.758 43.1406 142.685 42.507C140.613 41.8734 138.417 43.0461 137.781 45.1264C137.145 47.2066 138.31 49.4066 140.382 50.0402C142.455 50.6738 144.65 49.5011 145.286 47.4208Z" id="Oval-6" fill="none" fill-rule="evenodd" stroke="#636AF6" stroke-opacity="0.77" stroke-width="1.172232" />
          <path d="M130.555 3.20611C132.315 4.48471 132.709 6.94249 131.435 8.69572C130.161 10.4489 127.702 10.8337 125.942 9.55511C124.182 8.27651 123.788 5.81873 125.062 4.0655C126.336 2.31227 128.795 1.92752 130.555 3.20611Z" id="Oval-6" fill="none" fill-rule="evenodd" stroke="#636AF6" stroke-opacity="0.91" stroke-width="1.172232" />
          <path d="M72.709 110.394C74.3382 111.189 75.0173 113.149 74.2256 114.772C73.4339 116.395 71.4714 117.067 69.8421 116.272C68.2128 115.477 67.5338 113.517 68.3255 111.894C69.1171 110.271 71.0797 109.599 72.709 110.394Z" id="Oval-6" fill="none" fill-rule="evenodd" stroke="#636AF6" stroke-opacity="0.84" stroke-width="1.172232" />
          <path d="M93.0174 100.291C91.9049 98.01 89.1609 97.0594 86.8885 98.1677C84.6161 99.276 83.6758 102.024 84.7883 104.305C85.9008 106.586 88.6448 107.536 90.9173 106.428C93.1897 105.32 94.13 102.572 93.0174 100.291Z" id="Oval-6" fill="none" fill-rule="evenodd" stroke="#636AF6" stroke-opacity="0.79" stroke-width="1.172232" />
          <path d="M63.6924 79.7788C63.2846 81.5451 64.3805 83.3062 66.1402 83.7125C67.8998 84.1187 69.6568 83.0162 70.0646 81.2499C70.4724 79.4836 69.3765 77.7225 67.6169 77.3162C65.8572 76.91 64.1002 78.0125 63.6924 79.7788Z" id="Oval-6" fill="none" fill-rule="evenodd" stroke="#636AF6" stroke-opacity="0.97" stroke-width="1.172232" />
          <path d="M58.3931 6.07776C57.4395 8.03289 58.2454 10.388 60.1932 11.338C62.141 12.288 64.493 11.4731 65.4466 9.518C66.4002 7.56286 65.5942 5.20779 63.6465 4.2578C61.6987 3.3078 59.3467 4.12262 58.3931 6.07776Z" id="Oval-6" fill="none" fill-rule="evenodd" stroke="#636AF6" stroke-opacity="0.85" stroke-width="1.172232" />
          <path d="M25.4056 99.9253C23.6915 101.265 21.2203 100.966 19.8861 99.2582C18.5519 97.5505 18.8599 95.0804 20.5741 93.7412C22.2882 92.402 24.7594 92.7007 26.0936 94.4084C27.4278 96.1161 27.1198 98.5861 25.4056 99.9253Z" id="Oval-6" fill="none" fill-rule="evenodd" stroke="#636AF6" stroke-opacity="0.97" stroke-width="1.172232" />
          <path d="M27.6818 59.1296C27.304 61.2718 25.2677 62.7034 23.1335 62.3271C20.9994 61.9508 19.5755 59.9091 19.9532 57.7668C20.3309 55.6246 22.3673 54.193 24.5014 54.5694C26.6356 54.9457 28.0595 56.9874 27.6818 59.1296Z" id="Oval-6" fill="none" fill-rule="evenodd" stroke="#636AF6" stroke-opacity="0.74" stroke-width="1.172232" />
          <path d="M354.013 121.712L355.738 123.042L355.747 120.871L357.547 119.649L355.477 118.967L354.865 116.882L353.577 118.632L351.398 118.565L352.672 120.329L351.938 122.372L354.013 121.712Z" id="Star-2" fill="none" fill-rule="evenodd" stroke="#0076FF" stroke-width="1.172232" />
          <path d="M297.099 42.9535L298.762 43.4733L297.343 44.4755L297.368 46.2158L295.972 45.1723L294.324 45.7281L294.88 44.081L293.837 42.6842L295.577 42.7097L296.579 41.2906L297.099 42.9535Z" id="Star-2" fill="none" fill-rule="evenodd" stroke="#0076FF" stroke-opacity="0.71" stroke-width="1.172232" />
          <path d="M193.687 78.49L194.829 80.3441L192.669 80.1258L191.265 81.7886L190.803 79.6586L188.794 78.8322L190.669 77.7341L190.83 75.5606L192.451 77.0118L194.56 76.495L193.687 78.49Z" id="Star-2" fill="none" fill-rule="evenodd" stroke="#0076FF" stroke-opacity="0.73" stroke-width="1.172232" />
          <path d="M121.718 59.8344L119.655 59.1382L120.353 61.1944L119.049 62.9356L121.228 62.9065L122.485 64.6789L123.134 62.6047L125.215 61.9589L123.436 60.706L123.466 58.5346L121.718 59.8344Z" id="Star-2" fill="none" fill-rule="evenodd" stroke="#0076FF" stroke-opacity="0.83" stroke-width="1.172232" />
          <path d="M73.133 61.1617L71.7343 58.954L70.8331 61.3992L68.3017 62.0379L70.3559 63.6566L70.1901 66.259L72.3609 64.8141L74.7898 65.7838L74.0772 63.2722L75.7442 61.2691L73.133 61.1617Z" id="Star-2" fill="none" fill-rule="evenodd" stroke="#0076FF" stroke-opacity="0.92" stroke-width="1.172232" />
          <path d="M70.8356 19.9919L69.1045 21.3134L71.1999 21.8839L71.9139 23.939L73.1085 22.1161L75.281 22.0648L73.9239 20.3676L74.5524 18.2808L72.5191 19.0548L70.7352 17.8163L70.8356 19.9919Z" id="Star-2" fill="none" fill-rule="evenodd" stroke="#0076FF" stroke-opacity="0.82" stroke-width="1.172232" />
          <path d="M2.995 113.946L1.40778 113.227L2.93845 112.405L3.12521 110.675L4.38442 111.881L6.08707 111.53L5.33464 113.097L6.20017 114.611L4.47593 114.373L3.30821 115.66L2.995 113.946Z" id="Star-2" fill="none" fill-rule="evenodd" stroke="#0076FF" stroke-opacity="0.71" stroke-width="1.172232" />
          <path d="M27.374 41.0684L26.1937 39.7868L27.9238 39.6284L28.7718 38.1084L29.4597 39.7106L31.1641 40.0528L29.8592 41.2014L30.0645 42.9328L28.5701 42.0406L26.9926 42.7684L27.374 41.0684Z" id="Star-2" fill="none" fill-rule="evenodd" stroke="#0076FF" stroke-opacity="0.87" stroke-width="1.172232" />
          <path d="M9.04449 20.8722L7.84202 22.133L9.56909 22.3216L10.3905 23.8561L11.1062 22.2662L12.8164 21.9538L11.5317 20.7826L11.7672 19.055L10.2574 19.9211L8.69286 19.1658L9.04449 20.8722Z" id="Star-2" fill="none" fill-rule="evenodd" stroke="#0076FF" stroke-opacity="0.71" stroke-width="1.172232" />
          <path d="M345.712 75.589L345.921 78.6647L348.907 79.4056L350.543 76.7879L348.568 74.4291L345.712 75.589Z" id="Polygon" fill="none" fill-rule="evenodd" stroke="#FF004F" stroke-opacity="0.7" stroke-width="1.172232" />
          <path d="M353.172 19.3448L352.589 22.372L349.535 22.7436L348.231 19.946L350.478 17.8454L353.172 19.3448Z" id="Polygon" fill="none" fill-rule="evenodd" stroke="#FF004F" stroke-opacity="0.98" stroke-width="1.172232" />
          <path d="M231.498 65.8281L234.581 65.8874L235.579 62.9776L233.114 61.1199L230.592 62.8816L231.498 65.8281Z" id="Polygon" fill="none" fill-rule="evenodd" stroke="#FF004F" stroke-opacity="0.82" stroke-width="1.172232" />
          <path d="M185.339 23.2256L187.622 22.8598L188.667 24.9167L187.03 26.5538L184.973 25.5086L185.339 23.2256Z" id="Polygon" fill="none" fill-rule="evenodd" stroke="#FF004F" stroke-opacity="0.71" stroke-width="1.172232" />
          <path d="M141.461 116.125L143.352 114.796L145.193 116.186L144.439 118.375L142.133 118.338L141.461 116.125Z" id="Polygon" fill="none" fill-rule="evenodd" stroke="#FF004F" stroke-opacity="0.83" stroke-width="1.172232" />
          <path d="M121.807 28.3193L123.834 25.9963L122.246 23.3611L119.239 24.0555L118.967 27.1198L121.807 28.3193Z" id="Polygon" fill="none" fill-rule="evenodd" stroke="#FF004F" stroke-opacity="0.77" stroke-width="1.172232" />
          <path d="M33.0529 78.6139L30.2613 77.306L28.1657 79.5582L29.6623 82.258L32.6827 81.6743L33.0529 78.6139Z" id="Polygon" fill="none" fill-rule="evenodd" stroke="#FF004F" stroke-opacity="0.87" stroke-width="1.172232" />
          <path d="M353.295 95.2425L355.897 91.7064L357.685 95.2158L353.295 95.2425Z" id="Triangle" fill="none" fill-rule="evenodd" stroke="#04BD68" stroke-opacity="0.74" stroke-width="1.172232" />
          <path d="M359.473 41.4461L355.144 40.71L356.296 44.4766L359.473 41.4461Z" id="Triangle" fill="none" fill-rule="evenodd" stroke="#04BD68" stroke-opacity="0.88" stroke-width="1.172232" />
          <path d="M308.822 113.317L313.15 114.053L311.999 110.287L308.822 113.317Z" id="Triangle" fill="none" fill-rule="evenodd" stroke="#04BD68" stroke-opacity="0.76" stroke-width="1.172232" />
          <path d="M305.328 93.0377L308.017 98.2372L311.104 93.9886L305.328 93.0377Z" id="Triangle" fill="none" fill-rule="evenodd" stroke="#04BD68" stroke-opacity="0.76" stroke-width="1.172232" />
          <path d="M294.273 74.3578L291.044 77.3324L289.958 73.5463L294.273 74.3578Z" id="Triangle" fill="none" fill-rule="evenodd" stroke="#04BD68" stroke-opacity="0.85" stroke-width="1.172232" />
          <path d="M309.696 61.3193L315.488 60.4694L312.476 56.1675L309.696 61.3193Z" id="Triangle" fill="none" fill-rule="evenodd" stroke="#04BD68" stroke-opacity="0.87" stroke-width="1.172232" />
          <path d="M308.272 22.8844L311.742 27.5992L314.126 22.92L308.272 22.8844Z" id="Triangle" fill="none" fill-rule="evenodd" stroke="#04BD68" stroke-opacity="0.92" stroke-width="1.172232" />
          <path d="M253.919 113.614L250.03 111.577L249.961 115.515L253.919 113.614Z" id="Triangle" fill="none" fill-rule="evenodd" stroke="#04BD68" stroke-opacity="0.7" stroke-width="1.172232" />
          <path d="M256.533 95.2146L261.478 98.3468L256.976 101.052L256.533 95.2146Z" id="Triangle" fill="none" fill-rule="evenodd" stroke="#04BD68" stroke-opacity="0.97" stroke-width="1.172232" />
          <path d="M231.254 83.1763L230.367 78.8764L234.172 79.8958L231.254 83.1763Z" id="Triangle" fill="none" fill-rule="evenodd" stroke="#04BD68" stroke-opacity="0.79" stroke-width="1.172232" />
          <path d="M198.587 113.123L194.597 111.292L194.734 115.228L198.587 113.123Z" id="Triangle" fill="none" fill-rule="evenodd" stroke="#04BD68" stroke-width="1.172232" />
          <path d="M186.092 40.6812L185.583 45.042L189.284 43.6949L186.092 40.6812Z" id="Triangle" fill="none" fill-rule="evenodd" stroke="#04BD68" stroke-opacity="0.78" stroke-width="1.172232" />
          <path d="M118.063 78.1513L120.496 81.8059L116.587 82.2859L118.063 78.1513Z" id="Triangle" fill="none" fill-rule="evenodd" stroke="#04BD68" stroke-opacity="0.86" stroke-width="1.172232" />
          <path d="M90.1426 43.7769L84.7682 41.4569L88.7911 38.0812L90.1426 43.7769Z" id="Triangle" fill="none" fill-rule="evenodd" stroke="#04BD68" stroke-opacity="0.88" stroke-width="1.172232" />
        </g>
        <g id="Group-Copy-2" transform="translate(0 256.7188)" opacity="0.22999999">
          <path d="M352.762 59.9844C350.898 58.8641 348.481 59.4617 347.365 61.3193C346.249 63.1768 346.856 65.5909 348.72 66.7113C350.585 67.8316 353.001 67.234 354.117 65.3764C355.234 63.5189 354.627 61.1048 352.762 59.9844Z" id="Oval-6" fill="none" fill-rule="evenodd" stroke="#636AF6" stroke-opacity="0.91" stroke-width="1.172232" />
          <path d="M252.645 39.0804C251.428 37.277 248.986 36.7974 247.189 38.0092C245.393 39.2211 244.922 41.6654 246.139 43.4688C247.355 45.2722 249.798 45.7517 251.594 44.5399C253.391 43.3281 253.861 40.8838 252.645 39.0804Z" id="Oval-6" fill="none" fill-rule="evenodd" stroke="#636AF6" stroke-opacity="0.72" stroke-width="1.172232" />
          <path d="M258.386 19.1159C259.094 21.1727 258.007 23.412 255.958 24.1175C253.909 24.8231 251.674 23.7277 250.965 21.6709C250.257 19.6142 251.344 17.3749 253.393 16.6693C255.442 15.9638 257.677 17.0592 258.386 19.1159Z" id="Oval-6" fill="none" fill-rule="evenodd" stroke="#636AF6" stroke-opacity="0.74" stroke-width="1.172232" />
          <path d="M193.653 96.3303C193.339 98.1155 191.642 99.3085 189.863 98.9949C188.085 98.6813 186.898 96.9799 187.213 95.1947C187.528 93.4095 189.225 92.2165 191.003 92.5301C192.782 92.8437 193.968 94.5451 193.653 96.3303Z" id="Oval-6" fill="none" fill-rule="evenodd" stroke="#636AF6" stroke-opacity="0.86" stroke-width="1.172232" />
          <path d="M186.363 61.2311C188.053 59.8622 190.529 60.1177 191.893 61.8018C193.257 63.486 192.992 65.961 191.302 67.33C189.611 68.6989 187.135 68.4434 185.771 66.7592C184.408 65.0751 184.672 62.6001 186.363 61.2311Z" id="Oval-6" fill="none" fill-rule="evenodd" stroke="#636AF6" stroke-opacity="0.84" stroke-width="1.172232" />
          <path d="M179.15 3.26381C181.088 2.27625 183.457 3.04098 184.441 4.97189C185.425 6.90279 184.651 9.26868 182.713 10.2562C180.774 11.2438 178.406 10.4791 177.422 8.54815C176.438 6.61725 177.212 4.25137 179.15 3.26381Z" id="Oval-6" fill="none" fill-rule="evenodd" stroke="#636AF6" stroke-opacity="0.91" stroke-width="1.172232" />
          <path d="M132.399 102.56C132.022 100.417 133.445 98.3756 135.58 97.9993C137.714 97.623 139.75 99.0545 140.128 101.197C140.506 103.339 139.082 105.381 136.948 105.757C134.813 106.133 132.777 104.702 132.399 102.56Z" id="Oval-6" fill="none" fill-rule="evenodd" stroke="#636AF6" stroke-opacity="0.83" stroke-width="1.172232" />
          <path d="M145.286 47.4208C145.922 45.3406 144.758 43.1406 142.685 42.507C140.613 41.8734 138.417 43.0461 137.781 45.1264C137.145 47.2066 138.31 49.4066 140.382 50.0402C142.455 50.6738 144.65 49.5011 145.286 47.4208Z" id="Oval-6" fill="none" fill-rule="evenodd" stroke="#636AF6" stroke-opacity="0.77" stroke-width="1.172232" />
          <path d="M130.555 3.20611C132.315 4.48471 132.709 6.94249 131.435 8.69572C130.161 10.4489 127.702 10.8337 125.942 9.55511C124.182 8.27651 123.788 5.81873 125.062 4.0655C126.336 2.31227 128.795 1.92752 130.555 3.20611Z" id="Oval-6" fill="none" fill-rule="evenodd" stroke="#636AF6" stroke-opacity="0.91" stroke-width="1.172232" />
          <path d="M72.709 110.394C74.3382 111.189 75.0173 113.149 74.2256 114.772C73.4339 116.395 71.4714 117.067 69.8421 116.272C68.2128 115.477 67.5338 113.517 68.3255 111.894C69.1171 110.271 71.0797 109.599 72.709 110.394Z" id="Oval-6" fill="none" fill-rule="evenodd" stroke="#636AF6" stroke-opacity="0.84" stroke-width="1.172232" />
          <path d="M93.0174 100.291C91.9049 98.01 89.1609 97.0594 86.8885 98.1677C84.6161 99.276 83.6758 102.024 84.7883 104.305C85.9008 106.586 88.6448 107.536 90.9173 106.428C93.1897 105.32 94.13 102.572 93.0174 100.291Z" id="Oval-6" fill="none" fill-rule="evenodd" stroke="#636AF6" stroke-opacity="0.79" stroke-width="1.172232" />
          <path d="M63.6924 79.7788C63.2846 81.5451 64.3805 83.3062 66.1402 83.7125C67.8998 84.1187 69.6568 83.0162 70.0646 81.2499C70.4724 79.4836 69.3765 77.7225 67.6169 77.3162C65.8572 76.91 64.1002 78.0125 63.6924 79.7788Z" id="Oval-6" fill="none" fill-rule="evenodd" stroke="#636AF6" stroke-opacity="0.97" stroke-width="1.172232" />
          <path d="M58.3931 6.07776C57.4395 8.03289 58.2454 10.388 60.1932 11.338C62.141 12.288 64.493 11.4731 65.4466 9.518C66.4002 7.56286 65.5942 5.20779 63.6465 4.2578C61.6987 3.3078 59.3467 4.12262 58.3931 6.07776Z" id="Oval-6" fill="none" fill-rule="evenodd" stroke="#636AF6" stroke-opacity="0.85" stroke-width="1.172232" />
          <path d="M25.4056 99.9253C23.6915 101.265 21.2203 100.966 19.8861 99.2582C18.5519 97.5505 18.8599 95.0804 20.5741 93.7412C22.2882 92.402 24.7594 92.7007 26.0936 94.4084C27.4278 96.1161 27.1198 98.5861 25.4056 99.9253Z" id="Oval-6" fill="none" fill-rule="evenodd" stroke="#636AF6" stroke-opacity="0.97" stroke-width="1.172232" />
          <path d="M27.6818 59.1296C27.304 61.2718 25.2677 62.7034 23.1335 62.3271C20.9994 61.9508 19.5755 59.9091 19.9532 57.7668C20.3309 55.6246 22.3673 54.193 24.5014 54.5694C26.6356 54.9457 28.0595 56.9874 27.6818 59.1296Z" id="Oval-6" fill="none" fill-rule="evenodd" stroke="#636AF6" stroke-opacity="0.74" stroke-width="1.172232" />
          <path d="M354.013 121.712L355.738 123.042L355.747 120.871L357.547 119.649L355.477 118.967L354.865 116.882L353.577 118.632L351.398 118.565L352.672 120.329L351.938 122.372L354.013 121.712Z" id="Star-2" fill="none" fill-rule="evenodd" stroke="#0076FF" stroke-width="1.172232" />
          <path d="M297.099 42.9535L298.762 43.4733L297.343 44.4755L297.368 46.2158L295.972 45.1723L294.324 45.7281L294.88 44.081L293.837 42.6842L295.577 42.7097L296.579 41.2906L297.099 42.9535Z" id="Star-2" fill="none" fill-rule="evenodd" stroke="#0076FF" stroke-opacity="0.71" stroke-width="1.172232" />
          <path d="M193.687 78.49L194.829 80.3441L192.669 80.1258L191.265 81.7886L190.803 79.6586L188.794 78.8322L190.669 77.7341L190.83 75.5606L192.451 77.0118L194.56 76.495L193.687 78.49Z" id="Star-2" fill="none" fill-rule="evenodd" stroke="#0076FF" stroke-opacity="0.73" stroke-width="1.172232" />
          <path d="M121.718 59.8344L119.655 59.1382L120.353 61.1944L119.049 62.9356L121.228 62.9065L122.485 64.6789L123.134 62.6047L125.215 61.9589L123.436 60.706L123.466 58.5346L121.718 59.8344Z" id="Star-2" fill="none" fill-rule="evenodd" stroke="#0076FF" stroke-opacity="0.83" stroke-width="1.172232" />
          <path d="M73.133 61.1617L71.7343 58.954L70.8331 61.3992L68.3017 62.0379L70.3559 63.6566L70.1901 66.259L72.3609 64.8141L74.7898 65.7838L74.0772 63.2722L75.7442 61.2691L73.133 61.1617Z" id="Star-2" fill="none" fill-rule="evenodd" stroke="#0076FF" stroke-opacity="0.92" stroke-width="1.172232" />
          <path d="M70.8356 19.9919L69.1045 21.3134L71.1999 21.8839L71.9139 23.939L73.1085 22.1161L75.281 22.0648L73.9239 20.3676L74.5524 18.2808L72.5191 19.0548L70.7352 17.8163L70.8356 19.9919Z" id="Star-2" fill="none" fill-rule="evenodd" stroke="#0076FF" stroke-opacity="0.82" stroke-width="1.172232" />
          <path d="M2.995 113.946L1.40778 113.227L2.93845 112.405L3.12521 110.675L4.38442 111.881L6.08707 111.53L5.33464 113.097L6.20017 114.611L4.47593 114.373L3.30821 115.66L2.995 113.946Z" id="Star-2" fill="none" fill-rule="evenodd" stroke="#0076FF" stroke-opacity="0.71" stroke-width="1.172232" />
          <path d="M27.374 41.0684L26.1937 39.7868L27.9238 39.6284L28.7718 38.1084L29.4597 39.7106L31.1641 40.0528L29.8592 41.2014L30.0645 42.9328L28.5701 42.0406L26.9926 42.7684L27.374 41.0684Z" id="Star-2" fill="none" fill-rule="evenodd" stroke="#0076FF" stroke-opacity="0.87" stroke-width="1.172232" />
          <path d="M9.04449 20.8722L7.84202 22.133L9.56909 22.3216L10.3905 23.8561L11.1062 22.2662L12.8164 21.9538L11.5317 20.7826L11.7672 19.055L10.2574 19.9211L8.69286 19.1658L9.04449 20.8722Z" id="Star-2" fill="none" fill-rule="evenodd" stroke="#0076FF" stroke-opacity="0.71" stroke-width="1.172232" />
          <path d="M345.712 75.589L345.921 78.6647L348.907 79.4056L350.543 76.7879L348.568 74.4291L345.712 75.589Z" id="Polygon" fill="none" fill-rule="evenodd" stroke="#FF004F" stroke-opacity="0.7" stroke-width="1.172232" />
          <path d="M353.172 19.3448L352.589 22.372L349.535 22.7436L348.231 19.946L350.478 17.8454L353.172 19.3448Z" id="Polygon" fill="none" fill-rule="evenodd" stroke="#FF004F" stroke-opacity="0.98" stroke-width="1.172232" />
          <path d="M231.498 65.8281L234.581 65.8874L235.579 62.9776L233.114 61.1199L230.592 62.8816L231.498 65.8281Z" id="Polygon" fill="none" fill-rule="evenodd" stroke="#FF004F" stroke-opacity="0.82" stroke-width="1.172232" />
          <path d="M185.339 23.2256L187.622 22.8598L188.667 24.9167L187.03 26.5538L184.973 25.5086L185.339 23.2256Z" id="Polygon" fill="none" fill-rule="evenodd" stroke="#FF004F" stroke-opacity="0.71" stroke-width="1.172232" />
          <path d="M141.461 116.125L143.352 114.796L145.193 116.186L144.439 118.375L142.133 118.338L141.461 116.125Z" id="Polygon" fill="none" fill-rule="evenodd" stroke="#FF004F" stroke-opacity="0.83" stroke-width="1.172232" />
          <path d="M121.807 28.3193L123.834 25.9963L122.246 23.3611L119.239 24.0555L118.967 27.1198L121.807 28.3193Z" id="Polygon" fill="none" fill-rule="evenodd" stroke="#FF004F" stroke-opacity="0.77" stroke-width="1.172232" />
          <path d="M33.0529 78.6139L30.2613 77.306L28.1657 79.5582L29.6623 82.258L32.6827 81.6743L33.0529 78.6139Z" id="Polygon" fill="none" fill-rule="evenodd" stroke="#FF004F" stroke-opacity="0.87" stroke-width="1.172232" />
          <path d="M353.295 95.2425L355.897 91.7064L357.685 95.2158L353.295 95.2425Z" id="Triangle" fill="none" fill-rule="evenodd" stroke="#04BD68" stroke-opacity="0.74" stroke-width="1.172232" />
          <path d="M359.473 41.4461L355.144 40.71L356.296 44.4766L359.473 41.4461Z" id="Triangle" fill="none" fill-rule="evenodd" stroke="#04BD68" stroke-opacity="0.88" stroke-width="1.172232" />
          <path d="M308.822 113.317L313.15 114.053L311.999 110.287L308.822 113.317Z" id="Triangle" fill="none" fill-rule="evenodd" stroke="#04BD68" stroke-opacity="0.76" stroke-width="1.172232" />
          <path d="M305.328 93.0377L308.017 98.2372L311.104 93.9886L305.328 93.0377Z" id="Triangle" fill="none" fill-rule="evenodd" stroke="#04BD68" stroke-opacity="0.76" stroke-width="1.172232" />
          <path d="M294.273 74.3578L291.044 77.3324L289.958 73.5463L294.273 74.3578Z" id="Triangle" fill="none" fill-rule="evenodd" stroke="#04BD68" stroke-opacity="0.85" stroke-width="1.172232" />
          <path d="M309.696 61.3193L315.488 60.4694L312.476 56.1675L309.696 61.3193Z" id="Triangle" fill="none" fill-rule="evenodd" stroke="#04BD68" stroke-opacity="0.87" stroke-width="1.172232" />
          <path d="M308.272 22.8844L311.742 27.5992L314.126 22.92L308.272 22.8844Z" id="Triangle" fill="none" fill-rule="evenodd" stroke="#04BD68" stroke-opacity="0.92" stroke-width="1.172232" />
          <path d="M253.919 113.614L250.03 111.577L249.961 115.515L253.919 113.614Z" id="Triangle" fill="none" fill-rule="evenodd" stroke="#04BD68" stroke-opacity="0.7" stroke-width="1.172232" />
          <path d="M256.533 95.2146L261.478 98.3468L256.976 101.052L256.533 95.2146Z" id="Triangle" fill="none" fill-rule="evenodd" stroke="#04BD68" stroke-opacity="0.97" stroke-width="1.172232" />
          <path d="M231.254 83.1763L230.367 78.8764L234.172 79.8958L231.254 83.1763Z" id="Triangle" fill="none" fill-rule="evenodd" stroke="#04BD68" stroke-opacity="0.79" stroke-width="1.172232" />
          <path d="M198.587 113.123L194.597 111.292L194.734 115.228L198.587 113.123Z" id="Triangle" fill="none" fill-rule="evenodd" stroke="#04BD68" stroke-width="1.172232" />
          <path d="M186.092 40.6812L185.583 45.042L189.284 43.6949L186.092 40.6812Z" id="Triangle" fill="none" fill-rule="evenodd" stroke="#04BD68" stroke-opacity="0.78" stroke-width="1.172232" />
          <path d="M118.063 78.1513L120.496 81.8059L116.587 82.2859L118.063 78.1513Z" id="Triangle" fill="none" fill-rule="evenodd" stroke="#04BD68" stroke-opacity="0.86" stroke-width="1.172232" />
          <path d="M90.1426 43.7769L84.7682 41.4569L88.7911 38.0812L90.1426 43.7769Z" id="Triangle" fill="none" fill-rule="evenodd" stroke="#04BD68" stroke-opacity="0.88" stroke-width="1.172232" />
        </g>
      </g>
    </g>
    <g id="Group-13-Copy" transform="translate(0 380.9754)">
      <g id="Group-13">
        <g id="Group" opacity="0.22999999">
          <path d="M352.762 59.9844C350.898 58.8641 348.481 59.4617 347.365 61.3193C346.249 63.1768 346.856 65.5909 348.72 66.7113C350.585 67.8316 353.001 67.234 354.117 65.3764C355.234 63.5189 354.627 61.1048 352.762 59.9844Z" id="Oval-6" fill="none" fill-rule="evenodd" stroke="#636AF6" stroke-opacity="0.91" stroke-width="1.172232" />
          <path d="M252.645 39.0804C251.428 37.277 248.986 36.7974 247.189 38.0092C245.393 39.2211 244.922 41.6654 246.139 43.4688C247.355 45.2722 249.798 45.7517 251.594 44.5399C253.391 43.3281 253.861 40.8838 252.645 39.0804Z" id="Oval-6" fill="none" fill-rule="evenodd" stroke="#636AF6" stroke-opacity="0.72" stroke-width="1.172232" />
          <path d="M258.386 19.1159C259.094 21.1727 258.007 23.412 255.958 24.1175C253.909 24.8231 251.674 23.7277 250.965 21.6709C250.257 19.6142 251.344 17.3749 253.393 16.6693C255.442 15.9638 257.677 17.0592 258.386 19.1159Z" id="Oval-6" fill="none" fill-rule="evenodd" stroke="#636AF6" stroke-opacity="0.74" stroke-width="1.172232" />
          <path d="M193.653 96.3303C193.339 98.1155 191.642 99.3085 189.863 98.9949C188.085 98.6813 186.898 96.9799 187.213 95.1947C187.528 93.4095 189.225 92.2165 191.003 92.5301C192.782 92.8437 193.968 94.5451 193.653 96.3303Z" id="Oval-6" fill="none" fill-rule="evenodd" stroke="#636AF6" stroke-opacity="0.86" stroke-width="1.172232" />
          <path d="M186.363 61.2311C188.053 59.8622 190.529 60.1177 191.893 61.8018C193.257 63.486 192.992 65.961 191.302 67.33C189.611 68.6989 187.135 68.4434 185.771 66.7592C184.408 65.0751 184.672 62.6001 186.363 61.2311Z" id="Oval-6" fill="none" fill-rule="evenodd" stroke="#636AF6" stroke-opacity="0.84" stroke-width="1.172232" />
          <path d="M179.15 3.26381C181.088 2.27625 183.457 3.04098 184.441 4.97189C185.425 6.90279 184.651 9.26868 182.713 10.2562C180.774 11.2438 178.406 10.4791 177.422 8.54815C176.438 6.61725 177.212 4.25137 179.15 3.26381Z" id="Oval-6" fill="none" fill-rule="evenodd" stroke="#636AF6" stroke-opacity="0.91" stroke-width="1.172232" />
          <path d="M132.399 102.56C132.022 100.417 133.445 98.3756 135.58 97.9993C137.714 97.623 139.75 99.0545 140.128 101.197C140.506 103.339 139.082 105.381 136.948 105.757C134.813 106.133 132.777 104.702 132.399 102.56Z" id="Oval-6" fill="none" fill-rule="evenodd" stroke="#636AF6" stroke-opacity="0.83" stroke-width="1.172232" />
          <path d="M145.286 47.4208C145.922 45.3406 144.758 43.1406 142.685 42.507C140.613 41.8734 138.417 43.0461 137.781 45.1264C137.145 47.2066 138.31 49.4066 140.382 50.0402C142.455 50.6738 144.65 49.5011 145.286 47.4208Z" id="Oval-6" fill="none" fill-rule="evenodd" stroke="#636AF6" stroke-opacity="0.77" stroke-width="1.172232" />
          <path d="M130.555 3.20611C132.315 4.48471 132.709 6.94249 131.435 8.69572C130.161 10.4489 127.702 10.8337 125.942 9.55511C124.182 8.27651 123.788 5.81873 125.062 4.0655C126.336 2.31227 128.795 1.92752 130.555 3.20611Z" id="Oval-6" fill="none" fill-rule="evenodd" stroke="#636AF6" stroke-opacity="0.91" stroke-width="1.172232" />
          <path d="M72.709 110.394C74.3382 111.189 75.0173 113.149 74.2256 114.772C73.4339 116.395 71.4714 117.067 69.8421 116.272C68.2128 115.477 67.5338 113.517 68.3255 111.894C69.1171 110.271 71.0797 109.599 72.709 110.394Z" id="Oval-6" fill="none" fill-rule="evenodd" stroke="#636AF6" stroke-opacity="0.84" stroke-width="1.172232" />
          <path d="M93.0174 100.291C91.9049 98.01 89.1609 97.0594 86.8885 98.1677C84.6161 99.276 83.6758 102.024 84.7883 104.305C85.9008 106.586 88.6448 107.536 90.9173 106.428C93.1897 105.32 94.13 102.572 93.0174 100.291Z" id="Oval-6" fill="none" fill-rule="evenodd" stroke="#636AF6" stroke-opacity="0.79" stroke-width="1.172232" />
          <path d="M63.6924 79.7788C63.2846 81.5451 64.3805 83.3062 66.1402 83.7125C67.8998 84.1187 69.6568 83.0162 70.0646 81.2499C70.4724 79.4836 69.3765 77.7225 67.6169 77.3162C65.8572 76.91 64.1002 78.0125 63.6924 79.7788Z" id="Oval-6" fill="none" fill-rule="evenodd" stroke="#636AF6" stroke-opacity="0.97" stroke-width="1.172232" />
          <path d="M58.3931 6.07776C57.4395 8.03289 58.2454 10.388 60.1932 11.338C62.141 12.288 64.493 11.4731 65.4466 9.518C66.4002 7.56286 65.5942 5.20779 63.6465 4.2578C61.6987 3.3078 59.3467 4.12262 58.3931 6.07776Z" id="Oval-6" fill="none" fill-rule="evenodd" stroke="#636AF6" stroke-opacity="0.85" stroke-width="1.172232" />
          <path d="M25.4056 99.9253C23.6915 101.265 21.2203 100.966 19.8861 99.2582C18.5519 97.5505 18.8599 95.0804 20.5741 93.7412C22.2882 92.402 24.7594 92.7007 26.0936 94.4084C27.4278 96.1161 27.1198 98.5861 25.4056 99.9253Z" id="Oval-6" fill="none" fill-rule="evenodd" stroke="#636AF6" stroke-opacity="0.97" stroke-width="1.172232" />
          <path d="M27.6818 59.1296C27.304 61.2718 25.2677 62.7034 23.1335 62.3271C20.9994 61.9508 19.5755 59.9091 19.9532 57.7668C20.3309 55.6246 22.3673 54.193 24.5014 54.5694C26.6356 54.9457 28.0595 56.9874 27.6818 59.1296Z" id="Oval-6" fill="none" fill-rule="evenodd" stroke="#636AF6" stroke-opacity="0.74" stroke-width="1.172232" />
          <path d="M354.013 121.712L355.738 123.042L355.747 120.871L357.547 119.649L355.477 118.967L354.865 116.882L353.577 118.632L351.398 118.565L352.672 120.329L351.938 122.372L354.013 121.712Z" id="Star-2" fill="none" fill-rule="evenodd" stroke="#0076FF" stroke-width="1.172232" />
          <path d="M297.099 42.9535L298.762 43.4733L297.343 44.4755L297.368 46.2158L295.972 45.1723L294.324 45.7281L294.88 44.081L293.837 42.6842L295.577 42.7097L296.579 41.2906L297.099 42.9535Z" id="Star-2" fill="none" fill-rule="evenodd" stroke="#0076FF" stroke-opacity="0.71" stroke-width="1.172232" />
          <path d="M193.687 78.49L194.829 80.3441L192.669 80.1258L191.265 81.7886L190.803 79.6586L188.794 78.8322L190.669 77.7341L190.83 75.5606L192.451 77.0118L194.56 76.495L193.687 78.49Z" id="Star-2" fill="none" fill-rule="evenodd" stroke="#0076FF" stroke-opacity="0.73" stroke-width="1.172232" />
          <path d="M121.718 59.8344L119.655 59.1382L120.353 61.1944L119.049 62.9356L121.228 62.9065L122.485 64.6789L123.134 62.6047L125.215 61.9589L123.436 60.706L123.466 58.5346L121.718 59.8344Z" id="Star-2" fill="none" fill-rule="evenodd" stroke="#0076FF" stroke-opacity="0.83" stroke-width="1.172232" />
          <path d="M73.133 61.1617L71.7343 58.954L70.8331 61.3992L68.3017 62.0379L70.3559 63.6566L70.1901 66.259L72.3609 64.8141L74.7898 65.7838L74.0772 63.2722L75.7442 61.2691L73.133 61.1617Z" id="Star-2" fill="none" fill-rule="evenodd" stroke="#0076FF" stroke-opacity="0.92" stroke-width="1.172232" />
          <path d="M70.8356 19.9919L69.1045 21.3134L71.1999 21.8839L71.9139 23.939L73.1085 22.1161L75.281 22.0648L73.9239 20.3676L74.5524 18.2808L72.5191 19.0548L70.7352 17.8163L70.8356 19.9919Z" id="Star-2" fill="none" fill-rule="evenodd" stroke="#0076FF" stroke-opacity="0.82" stroke-width="1.172232" />
          <path d="M2.995 113.946L1.40778 113.227L2.93845 112.405L3.12521 110.675L4.38442 111.881L6.08707 111.53L5.33464 113.097L6.20017 114.611L4.47593 114.373L3.30821 115.66L2.995 113.946Z" id="Star-2" fill="none" fill-rule="evenodd" stroke="#0076FF" stroke-opacity="0.71" stroke-width="1.172232" />
          <path d="M27.374 41.0684L26.1937 39.7868L27.9238 39.6284L28.7718 38.1084L29.4597 39.7106L31.1641 40.0528L29.8592 41.2014L30.0645 42.9328L28.5701 42.0406L26.9926 42.7684L27.374 41.0684Z" id="Star-2" fill="none" fill-rule="evenodd" stroke="#0076FF" stroke-opacity="0.87" stroke-width="1.172232" />
          <path d="M9.04449 20.8722L7.84202 22.133L9.56909 22.3216L10.3905 23.8561L11.1062 22.2662L12.8164 21.9538L11.5317 20.7826L11.7672 19.055L10.2574 19.9211L8.69286 19.1658L9.04449 20.8722Z" id="Star-2" fill="none" fill-rule="evenodd" stroke="#0076FF" stroke-opacity="0.71" stroke-width="1.172232" />
          <path d="M345.712 75.589L345.921 78.6647L348.907 79.4056L350.543 76.7879L348.568 74.4291L345.712 75.589Z" id="Polygon" fill="none" fill-rule="evenodd" stroke="#FF004F" stroke-opacity="0.7" stroke-width="1.172232" />
          <path d="M353.172 19.3448L352.589 22.372L349.535 22.7436L348.231 19.946L350.478 17.8454L353.172 19.3448Z" id="Polygon" fill="none" fill-rule="evenodd" stroke="#FF004F" stroke-opacity="0.98" stroke-width="1.172232" />
          <path d="M231.498 65.8281L234.581 65.8874L235.579 62.9776L233.114 61.1199L230.592 62.8816L231.498 65.8281Z" id="Polygon" fill="none" fill-rule="evenodd" stroke="#FF004F" stroke-opacity="0.82" stroke-width="1.172232" />
          <path d="M185.339 23.2256L187.622 22.8598L188.667 24.9167L187.03 26.5538L184.973 25.5086L185.339 23.2256Z" id="Polygon" fill="none" fill-rule="evenodd" stroke="#FF004F" stroke-opacity="0.71" stroke-width="1.172232" />
          <path d="M141.461 116.125L143.352 114.796L145.193 116.186L144.439 118.375L142.133 118.338L141.461 116.125Z" id="Polygon" fill="none" fill-rule="evenodd" stroke="#FF004F" stroke-opacity="0.83" stroke-width="1.172232" />
          <path d="M121.807 28.3193L123.834 25.9963L122.246 23.3611L119.239 24.0555L118.967 27.1198L121.807 28.3193Z" id="Polygon" fill="none" fill-rule="evenodd" stroke="#FF004F" stroke-opacity="0.77" stroke-width="1.172232" />
          <path d="M33.0529 78.6139L30.2613 77.306L28.1657 79.5582L29.6623 82.258L32.6827 81.6743L33.0529 78.6139Z" id="Polygon" fill="none" fill-rule="evenodd" stroke="#FF004F" stroke-opacity="0.87" stroke-width="1.172232" />
          <path d="M353.295 95.2425L355.897 91.7064L357.685 95.2158L353.295 95.2425Z" id="Triangle" fill="none" fill-rule="evenodd" stroke="#04BD68" stroke-opacity="0.74" stroke-width="1.172232" />
          <path d="M359.473 41.4461L355.144 40.71L356.296 44.4766L359.473 41.4461Z" id="Triangle" fill="none" fill-rule="evenodd" stroke="#04BD68" stroke-opacity="0.88" stroke-width="1.172232" />
          <path d="M308.822 113.317L313.15 114.053L311.999 110.287L308.822 113.317Z" id="Triangle" fill="none" fill-rule="evenodd" stroke="#04BD68" stroke-opacity="0.76" stroke-width="1.172232" />
          <path d="M305.328 93.0377L308.017 98.2372L311.104 93.9886L305.328 93.0377Z" id="Triangle" fill="none" fill-rule="evenodd" stroke="#04BD68" stroke-opacity="0.76" stroke-width="1.172232" />
          <path d="M294.273 74.3578L291.044 77.3324L289.958 73.5463L294.273 74.3578Z" id="Triangle" fill="none" fill-rule="evenodd" stroke="#04BD68" stroke-opacity="0.85" stroke-width="1.172232" />
          <path d="M309.696 61.3193L315.488 60.4694L312.476 56.1675L309.696 61.3193Z" id="Triangle" fill="none" fill-rule="evenodd" stroke="#04BD68" stroke-opacity="0.87" stroke-width="1.172232" />
          <path d="M308.272 22.8844L311.742 27.5992L314.126 22.92L308.272 22.8844Z" id="Triangle" fill="none" fill-rule="evenodd" stroke="#04BD68" stroke-opacity="0.92" stroke-width="1.172232" />
          <path d="M253.919 113.614L250.03 111.577L249.961 115.515L253.919 113.614Z" id="Triangle" fill="none" fill-rule="evenodd" stroke="#04BD68" stroke-opacity="0.7" stroke-width="1.172232" />
          <path d="M256.533 95.2146L261.478 98.3468L256.976 101.052L256.533 95.2146Z" id="Triangle" fill="none" fill-rule="evenodd" stroke="#04BD68" stroke-opacity="0.97" stroke-width="1.172232" />
          <path d="M231.254 83.1763L230.367 78.8764L234.172 79.8958L231.254 83.1763Z" id="Triangle" fill="none" fill-rule="evenodd" stroke="#04BD68" stroke-opacity="0.79" stroke-width="1.172232" />
          <path d="M198.587 113.123L194.597 111.292L194.734 115.228L198.587 113.123Z" id="Triangle" fill="none" fill-rule="evenodd" stroke="#04BD68" stroke-width="1.172232" />
          <path d="M186.092 40.6812L185.583 45.042L189.284 43.6949L186.092 40.6812Z" id="Triangle" fill="none" fill-rule="evenodd" stroke="#04BD68" stroke-opacity="0.78" stroke-width="1.172232" />
          <path d="M118.063 78.1513L120.496 81.8059L116.587 82.2859L118.063 78.1513Z" id="Triangle" fill="none" fill-rule="evenodd" stroke="#04BD68" stroke-opacity="0.86" stroke-width="1.172232" />
          <path d="M90.1426 43.7769L84.7682 41.4569L88.7911 38.0812L90.1426 43.7769Z" id="Triangle" fill="none" fill-rule="evenodd" stroke="#04BD68" stroke-opacity="0.88" stroke-width="1.172232" />
        </g>
        <g id="Group-Copy" transform="translate(0 128.94551)" opacity="0.22999999">
          <path d="M352.762 59.9844C350.898 58.8641 348.481 59.4617 347.365 61.3193C346.249 63.1768 346.856 65.5909 348.72 66.7113C350.585 67.8316 353.001 67.234 354.117 65.3764C355.234 63.5189 354.627 61.1048 352.762 59.9844Z" id="Oval-6" fill="none" fill-rule="evenodd" stroke="#636AF6" stroke-opacity="0.91" stroke-width="1.172232" />
          <path d="M252.645 39.0804C251.428 37.277 248.986 36.7974 247.189 38.0092C245.393 39.2211 244.922 41.6654 246.139 43.4688C247.355 45.2722 249.798 45.7517 251.594 44.5399C253.391 43.3281 253.861 40.8838 252.645 39.0804Z" id="Oval-6" fill="none" fill-rule="evenodd" stroke="#636AF6" stroke-opacity="0.72" stroke-width="1.172232" />
          <path d="M258.386 19.1159C259.094 21.1727 258.007 23.412 255.958 24.1175C253.909 24.8231 251.674 23.7277 250.965 21.6709C250.257 19.6142 251.344 17.3749 253.393 16.6693C255.442 15.9638 257.677 17.0592 258.386 19.1159Z" id="Oval-6" fill="none" fill-rule="evenodd" stroke="#636AF6" stroke-opacity="0.74" stroke-width="1.172232" />
          <path d="M193.653 96.3303C193.339 98.1155 191.642 99.3085 189.863 98.9949C188.085 98.6813 186.898 96.9799 187.213 95.1947C187.528 93.4095 189.225 92.2165 191.003 92.5301C192.782 92.8437 193.968 94.5451 193.653 96.3303Z" id="Oval-6" fill="none" fill-rule="evenodd" stroke="#636AF6" stroke-opacity="0.86" stroke-width="1.172232" />
          <path d="M186.363 61.2311C188.053 59.8622 190.529 60.1177 191.893 61.8018C193.257 63.486 192.992 65.961 191.302 67.33C189.611 68.6989 187.135 68.4434 185.771 66.7592C184.408 65.0751 184.672 62.6001 186.363 61.2311Z" id="Oval-6" fill="none" fill-rule="evenodd" stroke="#636AF6" stroke-opacity="0.84" stroke-width="1.172232" />
          <path d="M179.15 3.26381C181.088 2.27625 183.457 3.04098 184.441 4.97189C185.425 6.90279 184.651 9.26868 182.713 10.2562C180.774 11.2438 178.406 10.4791 177.422 8.54815C176.438 6.61725 177.212 4.25137 179.15 3.26381Z" id="Oval-6" fill="none" fill-rule="evenodd" stroke="#636AF6" stroke-opacity="0.91" stroke-width="1.172232" />
          <path d="M132.399 102.56C132.022 100.417 133.445 98.3756 135.58 97.9993C137.714 97.623 139.75 99.0545 140.128 101.197C140.506 103.339 139.082 105.381 136.948 105.757C134.813 106.133 132.777 104.702 132.399 102.56Z" id="Oval-6" fill="none" fill-rule="evenodd" stroke="#636AF6" stroke-opacity="0.83" stroke-width="1.172232" />
          <path d="M145.286 47.4208C145.922 45.3406 144.758 43.1406 142.685 42.507C140.613 41.8734 138.417 43.0461 137.781 45.1264C137.145 47.2066 138.31 49.4066 140.382 50.0402C142.455 50.6738 144.65 49.5011 145.286 47.4208Z" id="Oval-6" fill="none" fill-rule="evenodd" stroke="#636AF6" stroke-opacity="0.77" stroke-width="1.172232" />
          <path d="M130.555 3.20611C132.315 4.48471 132.709 6.94249 131.435 8.69572C130.161 10.4489 127.702 10.8337 125.942 9.55511C124.182 8.27651 123.788 5.81873 125.062 4.0655C126.336 2.31227 128.795 1.92752 130.555 3.20611Z" id="Oval-6" fill="none" fill-rule="evenodd" stroke="#636AF6" stroke-opacity="0.91" stroke-width="1.172232" />
          <path d="M72.709 110.394C74.3382 111.189 75.0173 113.149 74.2256 114.772C73.4339 116.395 71.4714 117.067 69.8421 116.272C68.2128 115.477 67.5338 113.517 68.3255 111.894C69.1171 110.271 71.0797 109.599 72.709 110.394Z" id="Oval-6" fill="none" fill-rule="evenodd" stroke="#636AF6" stroke-opacity="0.84" stroke-width="1.172232" />
          <path d="M93.0174 100.291C91.9049 98.01 89.1609 97.0594 86.8885 98.1677C84.6161 99.276 83.6758 102.024 84.7883 104.305C85.9008 106.586 88.6448 107.536 90.9173 106.428C93.1897 105.32 94.13 102.572 93.0174 100.291Z" id="Oval-6" fill="none" fill-rule="evenodd" stroke="#636AF6" stroke-opacity="0.79" stroke-width="1.172232" />
          <path d="M63.6924 79.7788C63.2846 81.5451 64.3805 83.3062 66.1402 83.7125C67.8998 84.1187 69.6568 83.0162 70.0646 81.2499C70.4724 79.4836 69.3765 77.7225 67.6169 77.3162C65.8572 76.91 64.1002 78.0125 63.6924 79.7788Z" id="Oval-6" fill="none" fill-rule="evenodd" stroke="#636AF6" stroke-opacity="0.97" stroke-width="1.172232" />
          <path d="M58.3931 6.07776C57.4395 8.03289 58.2454 10.388 60.1932 11.338C62.141 12.288 64.493 11.4731 65.4466 9.518C66.4002 7.56286 65.5942 5.20779 63.6465 4.2578C61.6987 3.3078 59.3467 4.12262 58.3931 6.07776Z" id="Oval-6" fill="none" fill-rule="evenodd" stroke="#636AF6" stroke-opacity="0.85" stroke-width="1.172232" />
          <path d="M25.4056 99.9253C23.6915 101.265 21.2203 100.966 19.8861 99.2582C18.5519 97.5505 18.8599 95.0804 20.5741 93.7412C22.2882 92.402 24.7594 92.7007 26.0936 94.4084C27.4278 96.1161 27.1198 98.5861 25.4056 99.9253Z" id="Oval-6" fill="none" fill-rule="evenodd" stroke="#636AF6" stroke-opacity="0.97" stroke-width="1.172232" />
          <path d="M27.6818 59.1296C27.304 61.2718 25.2677 62.7034 23.1335 62.3271C20.9994 61.9508 19.5755 59.9091 19.9532 57.7668C20.3309 55.6246 22.3673 54.193 24.5014 54.5694C26.6356 54.9457 28.0595 56.9874 27.6818 59.1296Z" id="Oval-6" fill="none" fill-rule="evenodd" stroke="#636AF6" stroke-opacity="0.74" stroke-width="1.172232" />
          <path d="M354.013 121.712L355.738 123.042L355.747 120.871L357.547 119.649L355.477 118.967L354.865 116.882L353.577 118.632L351.398 118.565L352.672 120.329L351.938 122.372L354.013 121.712Z" id="Star-2" fill="none" fill-rule="evenodd" stroke="#0076FF" stroke-width="1.172232" />
          <path d="M297.099 42.9535L298.762 43.4733L297.343 44.4755L297.368 46.2158L295.972 45.1723L294.324 45.7281L294.88 44.081L293.837 42.6842L295.577 42.7097L296.579 41.2906L297.099 42.9535Z" id="Star-2" fill="none" fill-rule="evenodd" stroke="#0076FF" stroke-opacity="0.71" stroke-width="1.172232" />
          <path d="M193.687 78.49L194.829 80.3441L192.669 80.1258L191.265 81.7886L190.803 79.6586L188.794 78.8322L190.669 77.7341L190.83 75.5606L192.451 77.0118L194.56 76.495L193.687 78.49Z" id="Star-2" fill="none" fill-rule="evenodd" stroke="#0076FF" stroke-opacity="0.73" stroke-width="1.172232" />
          <path d="M121.718 59.8344L119.655 59.1382L120.353 61.1944L119.049 62.9356L121.228 62.9065L122.485 64.6789L123.134 62.6047L125.215 61.9589L123.436 60.706L123.466 58.5346L121.718 59.8344Z" id="Star-2" fill="none" fill-rule="evenodd" stroke="#0076FF" stroke-opacity="0.83" stroke-width="1.172232" />
          <path d="M73.133 61.1617L71.7343 58.954L70.8331 61.3992L68.3017 62.0379L70.3559 63.6566L70.1901 66.259L72.3609 64.8141L74.7898 65.7838L74.0772 63.2722L75.7442 61.2691L73.133 61.1617Z" id="Star-2" fill="none" fill-rule="evenodd" stroke="#0076FF" stroke-opacity="0.92" stroke-width="1.172232" />
          <path d="M70.8356 19.9919L69.1045 21.3134L71.1999 21.8839L71.9139 23.939L73.1085 22.1161L75.281 22.0648L73.9239 20.3676L74.5524 18.2808L72.5191 19.0548L70.7352 17.8163L70.8356 19.9919Z" id="Star-2" fill="none" fill-rule="evenodd" stroke="#0076FF" stroke-opacity="0.82" stroke-width="1.172232" />
          <path d="M2.995 113.946L1.40778 113.227L2.93845 112.405L3.12521 110.675L4.38442 111.881L6.08707 111.53L5.33464 113.097L6.20017 114.611L4.47593 114.373L3.30821 115.66L2.995 113.946Z" id="Star-2" fill="none" fill-rule="evenodd" stroke="#0076FF" stroke-opacity="0.71" stroke-width="1.172232" />
          <path d="M27.374 41.0684L26.1937 39.7868L27.9238 39.6284L28.7718 38.1084L29.4597 39.7106L31.1641 40.0528L29.8592 41.2014L30.0645 42.9328L28.5701 42.0406L26.9926 42.7684L27.374 41.0684Z" id="Star-2" fill="none" fill-rule="evenodd" stroke="#0076FF" stroke-opacity="0.87" stroke-width="1.172232" />
          <path d="M9.04449 20.8722L7.84202 22.133L9.56909 22.3216L10.3905 23.8561L11.1062 22.2662L12.8164 21.9538L11.5317 20.7826L11.7672 19.055L10.2574 19.9211L8.69286 19.1658L9.04449 20.8722Z" id="Star-2" fill="none" fill-rule="evenodd" stroke="#0076FF" stroke-opacity="0.71" stroke-width="1.172232" />
          <path d="M345.712 75.589L345.921 78.6647L348.907 79.4056L350.543 76.7879L348.568 74.4291L345.712 75.589Z" id="Polygon" fill="none" fill-rule="evenodd" stroke="#FF004F" stroke-opacity="0.7" stroke-width="1.172232" />
          <path d="M353.172 19.3448L352.589 22.372L349.535 22.7436L348.231 19.946L350.478 17.8454L353.172 19.3448Z" id="Polygon" fill="none" fill-rule="evenodd" stroke="#FF004F" stroke-opacity="0.98" stroke-width="1.172232" />
          <path d="M231.498 65.8281L234.581 65.8874L235.579 62.9776L233.114 61.1199L230.592 62.8816L231.498 65.8281Z" id="Polygon" fill="none" fill-rule="evenodd" stroke="#FF004F" stroke-opacity="0.82" stroke-width="1.172232" />
          <path d="M185.339 23.2256L187.622 22.8598L188.667 24.9167L187.03 26.5538L184.973 25.5086L185.339 23.2256Z" id="Polygon" fill="none" fill-rule="evenodd" stroke="#FF004F" stroke-opacity="0.71" stroke-width="1.172232" />
          <path d="M141.461 116.125L143.352 114.796L145.193 116.186L144.439 118.375L142.133 118.338L141.461 116.125Z" id="Polygon" fill="none" fill-rule="evenodd" stroke="#FF004F" stroke-opacity="0.83" stroke-width="1.172232" />
          <path d="M121.807 28.3193L123.834 25.9963L122.246 23.3611L119.239 24.0555L118.967 27.1198L121.807 28.3193Z" id="Polygon" fill="none" fill-rule="evenodd" stroke="#FF004F" stroke-opacity="0.77" stroke-width="1.172232" />
          <path d="M33.0529 78.6139L30.2613 77.306L28.1657 79.5582L29.6623 82.258L32.6827 81.6743L33.0529 78.6139Z" id="Polygon" fill="none" fill-rule="evenodd" stroke="#FF004F" stroke-opacity="0.87" stroke-width="1.172232" />
          <path d="M353.295 95.2425L355.897 91.7064L357.685 95.2158L353.295 95.2425Z" id="Triangle" fill="none" fill-rule="evenodd" stroke="#04BD68" stroke-opacity="0.74" stroke-width="1.172232" />
          <path d="M359.473 41.4461L355.144 40.71L356.296 44.4766L359.473 41.4461Z" id="Triangle" fill="none" fill-rule="evenodd" stroke="#04BD68" stroke-opacity="0.88" stroke-width="1.172232" />
          <path d="M308.822 113.317L313.15 114.053L311.999 110.287L308.822 113.317Z" id="Triangle" fill="none" fill-rule="evenodd" stroke="#04BD68" stroke-opacity="0.76" stroke-width="1.172232" />
          <path d="M305.328 93.0377L308.017 98.2372L311.104 93.9886L305.328 93.0377Z" id="Triangle" fill="none" fill-rule="evenodd" stroke="#04BD68" stroke-opacity="0.76" stroke-width="1.172232" />
          <path d="M294.273 74.3578L291.044 77.3324L289.958 73.5463L294.273 74.3578Z" id="Triangle" fill="none" fill-rule="evenodd" stroke="#04BD68" stroke-opacity="0.85" stroke-width="1.172232" />
          <path d="M309.696 61.3193L315.488 60.4694L312.476 56.1675L309.696 61.3193Z" id="Triangle" fill="none" fill-rule="evenodd" stroke="#04BD68" stroke-opacity="0.87" stroke-width="1.172232" />
          <path d="M308.272 22.8844L311.742 27.5992L314.126 22.92L308.272 22.8844Z" id="Triangle" fill="none" fill-rule="evenodd" stroke="#04BD68" stroke-opacity="0.92" stroke-width="1.172232" />
          <path d="M253.919 113.614L250.03 111.577L249.961 115.515L253.919 113.614Z" id="Triangle" fill="none" fill-rule="evenodd" stroke="#04BD68" stroke-opacity="0.7" stroke-width="1.172232" />
          <path d="M256.533 95.2146L261.478 98.3468L256.976 101.052L256.533 95.2146Z" id="Triangle" fill="none" fill-rule="evenodd" stroke="#04BD68" stroke-opacity="0.97" stroke-width="1.172232" />
          <path d="M231.254 83.1763L230.367 78.8764L234.172 79.8958L231.254 83.1763Z" id="Triangle" fill="none" fill-rule="evenodd" stroke="#04BD68" stroke-opacity="0.79" stroke-width="1.172232" />
          <path d="M198.587 113.123L194.597 111.292L194.734 115.228L198.587 113.123Z" id="Triangle" fill="none" fill-rule="evenodd" stroke="#04BD68" stroke-width="1.172232" />
          <path d="M186.092 40.6812L185.583 45.042L189.284 43.6949L186.092 40.6812Z" id="Triangle" fill="none" fill-rule="evenodd" stroke="#04BD68" stroke-opacity="0.78" stroke-width="1.172232" />
          <path d="M118.063 78.1513L120.496 81.8059L116.587 82.2859L118.063 78.1513Z" id="Triangle" fill="none" fill-rule="evenodd" stroke="#04BD68" stroke-opacity="0.86" stroke-width="1.172232" />
          <path d="M90.1426 43.7769L84.7682 41.4569L88.7911 38.0812L90.1426 43.7769Z" id="Triangle" fill="none" fill-rule="evenodd" stroke="#04BD68" stroke-opacity="0.88" stroke-width="1.172232" />
        </g>
        <g id="Group-Copy-2" transform="translate(0 256.7188)" opacity="0.22999999">
          <path d="M352.762 59.9844C350.898 58.8641 348.481 59.4617 347.365 61.3193C346.249 63.1768 346.856 65.5909 348.72 66.7113C350.585 67.8316 353.001 67.234 354.117 65.3764C355.234 63.5189 354.627 61.1048 352.762 59.9844Z" id="Oval-6" fill="none" fill-rule="evenodd" stroke="#636AF6" stroke-opacity="0.91" stroke-width="1.172232" />
          <path d="M252.645 39.0804C251.428 37.277 248.986 36.7974 247.189 38.0092C245.393 39.2211 244.922 41.6654 246.139 43.4688C247.355 45.2722 249.798 45.7517 251.594 44.5399C253.391 43.3281 253.861 40.8838 252.645 39.0804Z" id="Oval-6" fill="none" fill-rule="evenodd" stroke="#636AF6" stroke-opacity="0.72" stroke-width="1.172232" />
          <path d="M258.386 19.1159C259.094 21.1727 258.007 23.412 255.958 24.1175C253.909 24.8231 251.674 23.7277 250.965 21.6709C250.257 19.6142 251.344 17.3749 253.393 16.6693C255.442 15.9638 257.677 17.0592 258.386 19.1159Z" id="Oval-6" fill="none" fill-rule="evenodd" stroke="#636AF6" stroke-opacity="0.74" stroke-width="1.172232" />
          <path d="M193.653 96.3303C193.339 98.1155 191.642 99.3085 189.863 98.9949C188.085 98.6813 186.898 96.9799 187.213 95.1947C187.528 93.4095 189.225 92.2165 191.003 92.5301C192.782 92.8437 193.968 94.5451 193.653 96.3303Z" id="Oval-6" fill="none" fill-rule="evenodd" stroke="#636AF6" stroke-opacity="0.86" stroke-width="1.172232" />
          <path d="M186.363 61.2311C188.053 59.8622 190.529 60.1177 191.893 61.8018C193.257 63.486 192.992 65.961 191.302 67.33C189.611 68.6989 187.135 68.4434 185.771 66.7592C184.408 65.0751 184.672 62.6001 186.363 61.2311Z" id="Oval-6" fill="none" fill-rule="evenodd" stroke="#636AF6" stroke-opacity="0.84" stroke-width="1.172232" />
          <path d="M179.15 3.26381C181.088 2.27625 183.457 3.04098 184.441 4.97189C185.425 6.90279 184.651 9.26868 182.713 10.2562C180.774 11.2438 178.406 10.4791 177.422 8.54815C176.438 6.61725 177.212 4.25137 179.15 3.26381Z" id="Oval-6" fill="none" fill-rule="evenodd" stroke="#636AF6" stroke-opacity="0.91" stroke-width="1.172232" />
          <path d="M132.399 102.56C132.022 100.417 133.445 98.3756 135.58 97.9993C137.714 97.623 139.75 99.0545 140.128 101.197C140.506 103.339 139.082 105.381 136.948 105.757C134.813 106.133 132.777 104.702 132.399 102.56Z" id="Oval-6" fill="none" fill-rule="evenodd" stroke="#636AF6" stroke-opacity="0.83" stroke-width="1.172232" />
          <path d="M145.286 47.4208C145.922 45.3406 144.758 43.1406 142.685 42.507C140.613 41.8734 138.417 43.0461 137.781 45.1264C137.145 47.2066 138.31 49.4066 140.382 50.0402C142.455 50.6738 144.65 49.5011 145.286 47.4208Z" id="Oval-6" fill="none" fill-rule="evenodd" stroke="#636AF6" stroke-opacity="0.77" stroke-width="1.172232" />
          <path d="M130.555 3.20611C132.315 4.48471 132.709 6.94249 131.435 8.69572C130.161 10.4489 127.702 10.8337 125.942 9.55511C124.182 8.27651 123.788 5.81873 125.062 4.0655C126.336 2.31227 128.795 1.92752 130.555 3.20611Z" id="Oval-6" fill="none" fill-rule="evenodd" stroke="#636AF6" stroke-opacity="0.91" stroke-width="1.172232" />
          <path d="M72.709 110.394C74.3382 111.189 75.0173 113.149 74.2256 114.772C73.4339 116.395 71.4714 117.067 69.8421 116.272C68.2128 115.477 67.5338 113.517 68.3255 111.894C69.1171 110.271 71.0797 109.599 72.709 110.394Z" id="Oval-6" fill="none" fill-rule="evenodd" stroke="#636AF6" stroke-opacity="0.84" stroke-width="1.172232" />
          <path d="M93.0174 100.291C91.9049 98.01 89.1609 97.0594 86.8885 98.1677C84.6161 99.276 83.6758 102.024 84.7883 104.305C85.9008 106.586 88.6448 107.536 90.9173 106.428C93.1897 105.32 94.13 102.572 93.0174 100.291Z" id="Oval-6" fill="none" fill-rule="evenodd" stroke="#636AF6" stroke-opacity="0.79" stroke-width="1.172232" />
          <path d="M63.6924 79.7788C63.2846 81.5451 64.3805 83.3062 66.1402 83.7125C67.8998 84.1187 69.6568 83.0162 70.0646 81.2499C70.4724 79.4836 69.3765 77.7225 67.6169 77.3162C65.8572 76.91 64.1002 78.0125 63.6924 79.7788Z" id="Oval-6" fill="none" fill-rule="evenodd" stroke="#636AF6" stroke-opacity="0.97" stroke-width="1.172232" />
          <path d="M58.3931 6.07776C57.4395 8.03289 58.2454 10.388 60.1932 11.338C62.141 12.288 64.493 11.4731 65.4466 9.518C66.4002 7.56286 65.5942 5.20779 63.6465 4.2578C61.6987 3.3078 59.3467 4.12262 58.3931 6.07776Z" id="Oval-6" fill="none" fill-rule="evenodd" stroke="#636AF6" stroke-opacity="0.85" stroke-width="1.172232" />
          <path d="M25.4056 99.9253C23.6915 101.265 21.2203 100.966 19.8861 99.2582C18.5519 97.5505 18.8599 95.0804 20.5741 93.7412C22.2882 92.402 24.7594 92.7007 26.0936 94.4084C27.4278 96.1161 27.1198 98.5861 25.4056 99.9253Z" id="Oval-6" fill="none" fill-rule="evenodd" stroke="#636AF6" stroke-opacity="0.97" stroke-width="1.172232" />
          <path d="M27.6818 59.1296C27.304 61.2718 25.2677 62.7034 23.1335 62.3271C20.9994 61.9508 19.5755 59.9091 19.9532 57.7668C20.3309 55.6246 22.3673 54.193 24.5014 54.5694C26.6356 54.9457 28.0595 56.9874 27.6818 59.1296Z" id="Oval-6" fill="none" fill-rule="evenodd" stroke="#636AF6" stroke-opacity="0.74" stroke-width="1.172232" />
          <path d="M354.013 121.712L355.738 123.042L355.747 120.871L357.547 119.649L355.477 118.967L354.865 116.882L353.577 118.632L351.398 118.565L352.672 120.329L351.938 122.372L354.013 121.712Z" id="Star-2" fill="none" fill-rule="evenodd" stroke="#0076FF" stroke-width="1.172232" />
          <path d="M297.099 42.9535L298.762 43.4733L297.343 44.4755L297.368 46.2158L295.972 45.1723L294.324 45.7281L294.88 44.081L293.837 42.6842L295.577 42.7097L296.579 41.2906L297.099 42.9535Z" id="Star-2" fill="none" fill-rule="evenodd" stroke="#0076FF" stroke-opacity="0.71" stroke-width="1.172232" />
          <path d="M193.687 78.49L194.829 80.3441L192.669 80.1258L191.265 81.7886L190.803 79.6586L188.794 78.8322L190.669 77.7341L190.83 75.5606L192.451 77.0118L194.56 76.495L193.687 78.49Z" id="Star-2" fill="none" fill-rule="evenodd" stroke="#0076FF" stroke-opacity="0.73" stroke-width="1.172232" />
          <path d="M121.718 59.8344L119.655 59.1382L120.353 61.1944L119.049 62.9356L121.228 62.9065L122.485 64.6789L123.134 62.6047L125.215 61.9589L123.436 60.706L123.466 58.5346L121.718 59.8344Z" id="Star-2" fill="none" fill-rule="evenodd" stroke="#0076FF" stroke-opacity="0.83" stroke-width="1.172232" />
          <path d="M73.133 61.1617L71.7343 58.954L70.8331 61.3992L68.3017 62.0379L70.3559 63.6566L70.1901 66.259L72.3609 64.8141L74.7898 65.7838L74.0772 63.2722L75.7442 61.2691L73.133 61.1617Z" id="Star-2" fill="none" fill-rule="evenodd" stroke="#0076FF" stroke-opacity="0.92" stroke-width="1.172232" />
          <path d="M70.8356 19.9919L69.1045 21.3134L71.1999 21.8839L71.9139 23.939L73.1085 22.1161L75.281 22.0648L73.9239 20.3676L74.5524 18.2808L72.5191 19.0548L70.7352 17.8163L70.8356 19.9919Z" id="Star-2" fill="none" fill-rule="evenodd" stroke="#0076FF" stroke-opacity="0.82" stroke-width="1.172232" />
          <path d="M2.995 113.946L1.40778 113.227L2.93845 112.405L3.12521 110.675L4.38442 111.881L6.08707 111.53L5.33464 113.097L6.20017 114.611L4.47593 114.373L3.30821 115.66L2.995 113.946Z" id="Star-2" fill="none" fill-rule="evenodd" stroke="#0076FF" stroke-opacity="0.71" stroke-width="1.172232" />
          <path d="M27.374 41.0684L26.1937 39.7868L27.9238 39.6284L28.7718 38.1084L29.4597 39.7106L31.1641 40.0528L29.8592 41.2014L30.0645 42.9328L28.5701 42.0406L26.9926 42.7684L27.374 41.0684Z" id="Star-2" fill="none" fill-rule="evenodd" stroke="#0076FF" stroke-opacity="0.87" stroke-width="1.172232" />
          <path d="M9.04449 20.8722L7.84202 22.133L9.56909 22.3216L10.3905 23.8561L11.1062 22.2662L12.8164 21.9538L11.5317 20.7826L11.7672 19.055L10.2574 19.9211L8.69286 19.1658L9.04449 20.8722Z" id="Star-2" fill="none" fill-rule="evenodd" stroke="#0076FF" stroke-opacity="0.71" stroke-width="1.172232" />
          <path d="M345.712 75.589L345.921 78.6647L348.907 79.4056L350.543 76.7879L348.568 74.4291L345.712 75.589Z" id="Polygon" fill="none" fill-rule="evenodd" stroke="#FF004F" stroke-opacity="0.7" stroke-width="1.172232" />
          <path d="M353.172 19.3448L352.589 22.372L349.535 22.7436L348.231 19.946L350.478 17.8454L353.172 19.3448Z" id="Polygon" fill="none" fill-rule="evenodd" stroke="#FF004F" stroke-opacity="0.98" stroke-width="1.172232" />
          <path d="M231.498 65.8281L234.581 65.8874L235.579 62.9776L233.114 61.1199L230.592 62.8816L231.498 65.8281Z" id="Polygon" fill="none" fill-rule="evenodd" stroke="#FF004F" stroke-opacity="0.82" stroke-width="1.172232" />
          <path d="M185.339 23.2256L187.622 22.8598L188.667 24.9167L187.03 26.5538L184.973 25.5086L185.339 23.2256Z" id="Polygon" fill="none" fill-rule="evenodd" stroke="#FF004F" stroke-opacity="0.71" stroke-width="1.172232" />
          <path d="M141.461 116.125L143.352 114.796L145.193 116.186L144.439 118.375L142.133 118.338L141.461 116.125Z" id="Polygon" fill="none" fill-rule="evenodd" stroke="#FF004F" stroke-opacity="0.83" stroke-width="1.172232" />
          <path d="M121.807 28.3193L123.834 25.9963L122.246 23.3611L119.239 24.0555L118.967 27.1198L121.807 28.3193Z" id="Polygon" fill="none" fill-rule="evenodd" stroke="#FF004F" stroke-opacity="0.77" stroke-width="1.172232" />
          <path d="M33.0529 78.6139L30.2613 77.306L28.1657 79.5582L29.6623 82.258L32.6827 81.6743L33.0529 78.6139Z" id="Polygon" fill="none" fill-rule="evenodd" stroke="#FF004F" stroke-opacity="0.87" stroke-width="1.172232" />
          <path d="M353.295 95.2425L355.897 91.7064L357.685 95.2158L353.295 95.2425Z" id="Triangle" fill="none" fill-rule="evenodd" stroke="#04BD68" stroke-opacity="0.74" stroke-width="1.172232" />
          <path d="M359.473 41.4461L355.144 40.71L356.296 44.4766L359.473 41.4461Z" id="Triangle" fill="none" fill-rule="evenodd" stroke="#04BD68" stroke-opacity="0.88" stroke-width="1.172232" />
          <path d="M308.822 113.317L313.15 114.053L311.999 110.287L308.822 113.317Z" id="Triangle" fill="none" fill-rule="evenodd" stroke="#04BD68" stroke-opacity="0.76" stroke-width="1.172232" />
          <path d="M305.328 93.0377L308.017 98.2372L311.104 93.9886L305.328 93.0377Z" id="Triangle" fill="none" fill-rule="evenodd" stroke="#04BD68" stroke-opacity="0.76" stroke-width="1.172232" />
          <path d="M294.273 74.3578L291.044 77.3324L289.958 73.5463L294.273 74.3578Z" id="Triangle" fill="none" fill-rule="evenodd" stroke="#04BD68" stroke-opacity="0.85" stroke-width="1.172232" />
          <path d="M309.696 61.3193L315.488 60.4694L312.476 56.1675L309.696 61.3193Z" id="Triangle" fill="none" fill-rule="evenodd" stroke="#04BD68" stroke-opacity="0.87" stroke-width="1.172232" />
          <path d="M308.272 22.8844L311.742 27.5992L314.126 22.92L308.272 22.8844Z" id="Triangle" fill="none" fill-rule="evenodd" stroke="#04BD68" stroke-opacity="0.92" stroke-width="1.172232" />
          <path d="M253.919 113.614L250.03 111.577L249.961 115.515L253.919 113.614Z" id="Triangle" fill="none" fill-rule="evenodd" stroke="#04BD68" stroke-opacity="0.7" stroke-width="1.172232" />
          <path d="M256.533 95.2146L261.478 98.3468L256.976 101.052L256.533 95.2146Z" id="Triangle" fill="none" fill-rule="evenodd" stroke="#04BD68" stroke-opacity="0.97" stroke-width="1.172232" />
          <path d="M231.254 83.1763L230.367 78.8764L234.172 79.8958L231.254 83.1763Z" id="Triangle" fill="none" fill-rule="evenodd" stroke="#04BD68" stroke-opacity="0.79" stroke-width="1.172232" />
          <path d="M198.587 113.123L194.597 111.292L194.734 115.228L198.587 113.123Z" id="Triangle" fill="none" fill-rule="evenodd" stroke="#04BD68" stroke-width="1.172232" />
          <path d="M186.092 40.6812L185.583 45.042L189.284 43.6949L186.092 40.6812Z" id="Triangle" fill="none" fill-rule="evenodd" stroke="#04BD68" stroke-opacity="0.78" stroke-width="1.172232" />
          <path d="M118.063 78.1513L120.496 81.8059L116.587 82.2859L118.063 78.1513Z" id="Triangle" fill="none" fill-rule="evenodd" stroke="#04BD68" stroke-opacity="0.86" stroke-width="1.172232" />
          <path d="M90.1426 43.7769L84.7682 41.4569L88.7911 38.0812L90.1426 43.7769Z" id="Triangle" fill="none" fill-rule="evenodd" stroke="#04BD68" stroke-opacity="0.88" stroke-width="1.172232" />
        </g>
      </g>
    </g>
  </g>
</svg>