<?xml version="1.0" encoding="UTF-8"?>
<svg width="16px" height="16px" viewBox="0 0 16 16" version="1.1" xmlns="http://www.w3.org/2000/svg" xmlns:xlink="http://www.w3.org/1999/xlink">
    <title>Path</title>
    <g id="Page-1" stroke="none" stroke-width="1" fill="none" fill-rule="evenodd">
        <g id="Recherche" transform="translate(-13.000000, -22.000000)" fill="#FFFFFF" fill-rule="nonzero">
            <g id="icons8-close" transform="translate(13.000000, 22.000000)">
                <path d="M1.00474802,0.0004374955 C0.597824938,0.000544362549 0.231538994,0.247192931 0.0784169931,0.624207602 C-0.0747050077,1.00122227 0.0158710875,1.43342232 0.307482424,1.7172343 L6.60045162,8.0102031 L0.307482424,14.3031721 C0.046244604,14.5539894 -0.0589879186,14.9264384 0.0323693484,15.2768786 C0.123726615,15.6273188 0.397398127,15.9009903 0.747838383,15.9923474 C1.09827864,16.0837046 1.47072762,15.978472 1.72154482,15.7172341 L8.01451362,9.4242651 L14.3074826,15.7172341 C14.5582992,15.9784749 14.9307496,16.0837097 15.2811917,15.9923529 C15.6316337,15.9009961 15.9053066,15.6273232 15.9966634,15.2768811 C16.0880203,14.9264391 15.9827854,14.5539887 15.7215446,14.3031721 L9.42857562,8.0102031 L15.7215446,1.7172343 C16.017305,1.42974294 16.1062334,0.990168395 15.9454792,0.610321609 C15.784725,0.230474823 15.4072661,-0.0117209119 14.9949826,0.0004374955 C14.735184,0.00817863137 14.4886042,0.116757801 14.3074826,0.303171896 L8.01451362,6.5961411 L1.72154482,0.303171896 C1.53327375,0.109639152 1.27474973,0.000453234632 1.00474802,0.0004374955 Z" id="Path"></path>
            </g>
        </g>
    </g>
</svg>