<?xml version="1.0" encoding="UTF-8"?>
<svg width="102px" height="92px" viewBox="0 0 102 92" version="1.1" xmlns="http://www.w3.org/2000/svg" xmlns:xlink="http://www.w3.org/1999/xlink">
    <title>Shape</title>
    <g id="Page-1" stroke="none" stroke-width="1" fill="none" fill-rule="evenodd">
        <g id="Whishlist-vides" transform="translate(-136.000000, -261.000000)" fill="#FFFFFF" fill-rule="nonzero">
            <g id="icons8-multiple_stars" transform="translate(136.000000, 261.000000)">
                <path d="M60.4940973,0 C59.6551374,0 58.8137472,0.435395659 58.3874967,1.31477982 L55.728951,6.74056253 C55.3898346,7.44217361 54.7304415,7.92304978 53.9627196,8.03682455 L48.0200857,8.90717215 C46.089006,9.1916086 45.3149586,11.5740646 46.7138139,12.944102 L51.009802,17.1662126 C51.5655762,17.7113833 51.8224145,18.5000293 51.6905359,19.268009 L50.6694328,25.2308143 C50.3350263,27.1649854 52.3629567,28.6364278 54.0915085,27.7214895 L59.4085998,24.9067491 C60.0915426,24.5417213 60.9103392,24.5417218 61.597992,24.9067491 L66.9150833,27.7214895 C68.6389251,28.6364283 70.657657,27.1649854 70.3279604,25.2308143 L69.3068573,19.268009 C69.1749787,18.4952887 69.431817,17.7113838 69.9875912,17.1662126 L74.2835793,12.944102 C75.6824346,11.5740646 74.9175858,9.1916086 72.9865061,8.90717215 L67.0438722,8.03682455 C66.2808602,7.92304978 65.6122686,7.44217361 65.2684422,6.74056253 L62.6098966,1.31477982 C62.1765811,0.435396133 61.3330573,0 60.4940973,0 Z M32.4912198,30 C30.7633908,30 29.0356358,30.8064779 28.2387235,32.424466 L20.7713777,47.5542455 L4.05786354,49.9787079 C2.26955459,50.2392917 0.791279112,51.4886158 0.231543154,53.1989932 C-0.323449043,54.9141085 0.136450655,56.7968976 1.42668948,58.0571804 L13.5263841,69.827865 L10.6728573,86.4567415 C10.3645281,88.2334494 11.0925852,90.0315535 12.5535909,91.0928403 C14.0240837,92.1541271 15.948695,92.2970786 17.547263,91.4537347 L32.4912198,83.6066084 L47.4444402,91.4537347 C48.1369949,91.818552 48.8952189,92 49.6494394,92 C50.6313491,92 51.6172623,91.694552 52.4473792,91.0928403 C53.9036414,90.0315535 54.6316966,88.2334494 54.328111,86.4567415 L51.4745865,69.827865 L63.5650161,58.0571804 C64.8599984,56.8016355 65.324418,54.9141085 64.7694255,53.1989932 C64.2049461,51.4838779 62.7221486,50.2392917 60.9338396,49.9787079 L44.2203279,47.5542455 L36.743716,32.424466 C35.9468038,30.8041084 34.2190488,30 32.4912198,30 Z M89.9954133,34 C89.3023595,34 88.6145168,34.3654258 88.262415,35.0899742 L86.0617785,39.5414718 C85.7800971,40.1136082 85.2284709,40.5101784 84.5946875,40.6039713 L79.670764,41.3184055 C78.074569,41.5528876 77.4338892,43.5086138 78.5887833,44.634128 L82.15565,48.1055654 C82.611035,48.5510814 82.8137846,49.1944394 82.7058067,49.8275411 L81.8714005,54.7186927 C81.5991084,56.3084815 83.2683622,57.520754 84.6955483,56.7704113 L89.0968212,54.4530667 C89.6648789,54.1529296 90.3351211,54.1529296 90.9031788,54.4530667 L95.3044517,56.7704113 C96.7316378,57.5254437 98.4008916,56.3084815 98.1285995,54.7186927 L97.2941933,49.8275411 C97.1862154,49.199129 97.3934437,48.5510814 97.8535235,48.1055654 L101.411217,44.634128 C102.566111,43.5086138 101.925431,41.5481979 100.329236,41.3184055 L95.4053125,40.6039713 C94.7715291,40.5101737 94.2290717,40.1136082 93.9473902,39.5414718 L91.7467537,35.0899742 C91.3876099,34.3654254 90.6884671,34 89.9954133,34 Z" id="Shape"></path>
            </g>
        </g>
    </g>
</svg>