<?xml version="1.0" encoding="UTF-8"?>
<svg width="94px" height="94px" viewBox="0 0 94 94" version="1.1" xmlns="http://www.w3.org/2000/svg" xmlns:xlink="http://www.w3.org/1999/xlink">
    <title>Shape</title>
    <g id="Page-1" stroke="none" stroke-width="1" fill="none" fill-rule="evenodd">
        <g id="Likes-vides" transform="translate(-141.000000, -260.000000)" fill="#FFFFFF" fill-rule="nonzero">
            <g id="icons8-melting_heart" transform="translate(141.000000, 260.000000)">
                <path d="M25.6370494,0.00120170773 C11.4767683,0.00120170773 0,11.4697766 0,25.6199487 C0,50.2502465 28.5907434,73.7848513 41.9480562,84.2655489 C41.9506093,84.2680953 41.9531606,84.2706435 41.9557102,84.2731935 C41.9658916,84.280863 41.9760917,84.2885076 41.9863105,84.2961274 C42.0778333,84.3679312 42.2022636,84.4702077 42.2923332,84.5407707 L42.2999832,84.5331261 C43.6551947,85.5563976 45.3065052,86.1118078 47.0050823,86.1156633 C48.7062784,86.1134658 50.3605299,85.5579696 51.7178314,84.5331261 L51.7178314,84.5407707 C51.7459248,84.5187215 51.7813941,84.486499 51.8096363,84.4643206 C51.8291316,84.4490158 51.8589289,84.4338165 51.8784948,84.418449 C51.8989888,84.4007162 51.9193906,84.3828772 51.9396993,84.3649328 C53.1298132,83.4298668 54.4367503,82.3980394 55.8491355,81.2533746 C57.6823338,79.765943 58.7563529,77.5205476 58.7563529,75.1602285 L58.7563529,66.5441948 C58.7563529,64.3835046 60.5112093,62.629901 62.6734431,62.629901 C64.8356769,62.629901 66.5905333,64.3835046 66.5905333,66.5441948 L66.5905333,72.0104433 L66.5905333,90.029957 C66.570555,91.4415919 67.3127479,92.7546239 68.5329119,93.4662674 C69.753076,94.1779109 71.262171,94.1779109 72.482335,93.4662674 C73.702499,92.7546239 74.4446919,91.4415919 74.4247136,90.029957 L74.4247136,64.2735991 L74.4247136,54.8013136 L74.4247136,43.0584325 C74.4247136,40.8977424 76.1795701,39.1441388 78.3418038,39.1441388 C80.5040376,39.1441388 82.258894,40.8977424 82.258894,43.0584325 L82.258894,54.9465692 L82.258894,58.7156073 C82.2389157,60.1272422 82.9811087,61.4402742 84.2012727,62.1519177 C85.4214367,62.8635612 86.9305317,62.8635612 88.1506957,62.1519177 C89.3708598,61.4402742 90.1130527,60.1272422 90.0930744,58.7156073 L90.0930744,42.003409 C92.3302696,37.100897 93.7727889,32.0387367 93.9795643,26.911971 C94.4848689,14.4058026 85.5646753,3.0148407 73.2924317,0.505778435 C56.758394,-2.86834235 47.0050823,11.7440828 47.0050823,11.7440828 C47.0050823,11.7440828 39.1705964,0.00120170773 25.6370494,0.00120170773 Z M86,70 C83.790861,70 82,71.790861 82,74 C82,76.209139 83.790861,78 86,78 C88.209139,78 90,76.209139 90,74 C90,71.790861 88.209139,70 86,70 Z" id="Shape"></path>
            </g>
        </g>
    </g>
</svg>