<?xml version="1.0" encoding="UTF-8"?>
<svg width="21px" height="18px" viewBox="0 0 21 18" version="1.1" xmlns="http://www.w3.org/2000/svg" xmlns:xlink="http://www.w3.org/1999/xlink">
    <title>Shape</title>
    <g id="Page-1" stroke="none" stroke-width="1" fill="none" fill-rule="evenodd">
        <g id="Accueil" transform="translate(-288.000000, -21.000000)" fill="#FFFFFF" fill-rule="nonzero">
            <g id="Header-Bar" transform="translate(0.000000, -18.000000)">
                <g id="icons8-heart" transform="translate(288.000000, 39.000000)">
                    <path d="M5.93478261,0 C2.66244893,0 0,2.60406966 0,5.80465116 C0,12.3959303 7.62177333,15.6488372 10.2146739,17.7627907 L10.5,18 L10.7853261,17.7627907 C13.3782271,15.6488372 21,12.3959303 21,5.80465116 C21,2.60406966 18.3375511,0 15.0652174,0 C13.2141646,0 11.5878059,0.859883609 10.5,2.1627907 C9.41219452,0.859883609 7.78583583,0 5.93478261,0 Z M5.97619048,1 C7.71149576,1 9.22767857,1.88034934 10.1183036,3.20786026 L10.5,3.76681223 L10.8816964,3.20786026 C11.7723214,1.88034934 13.2885047,1 15.0238095,1 C17.776972,1 20,3.19738014 20,5.91877729 C20,11.6864631 13.4828869,14.6716158 10.5,17 C7.5171131,14.6716158 1,11.6864631 1,5.91877729 C1,3.19738014 3.2230285,1 5.97619048,1 Z" id="Shape"></path>
                </g>
            </g>
        </g>
    </g>
</svg>