<?xml version="1.0" encoding="UTF-8"?>
<svg width="20px" height="20px" viewBox="0 0 20 20" version="1.1" xmlns="http://www.w3.org/2000/svg" xmlns:xlink="http://www.w3.org/1999/xlink">
    <title>Group 2</title>
    <g id="Page-1" stroke="none" stroke-width="1" fill="none" fill-rule="evenodd">
        <g id="Inscription" transform="translate(-333.000000, -311.000000)">
            <g id="Error-Password" transform="translate(11.742958, 297.096831)">
                <g id="Group-2" transform="translate(322.784537, 15.016307)">
                    <circle id="Oval-14" stroke="#FF004F" stroke-width="1.37612786" fill="#FF004F" cx="8.80721831" cy="8.80721831" r="8.80721831"></circle>
                    <g id="exclamation" transform="translate(7.706316, 2.201805)" fill="#FFFFFF">
                        <g id="Group-4" transform="translate(0.000000, 11.009023)">
                            <path d="M1.83468807,0.734095407 C1.83468807,1.13922745 1.50589672,1.4680188 1.10076468,1.4680188 C0.695632634,1.4680188 0.366841285,1.13922745 0.366841285,0.734095407 C0.366841285,0.328963365 0.695632634,0.000137612786 1.10076468,0.000137612786 C1.50589672,0.000137612786 1.83468807,0.328963365 1.83468807,0.734095407" id="Fill-1"></path>
                        </g>
                        <path d="M0.366841285,1.4680188 L0.366841285,8.80735592 C0.366841285,9.21269438 0.695426215,9.54131372 1.10076468,9.54131372 C1.50610314,9.54131372 1.83468807,9.21269438 1.83468807,8.80735592 L1.83468807,1.4680188 C1.83468807,1.06268034 1.50610314,0.734095407 1.10076468,0.734095407 C0.695426215,0.734095407 0.366841285,1.06268034 0.366841285,1.4680188" id="Fill-5"></path>
                        <path d="M1.83468807,11.7431183 C1.83468807,12.1482503 1.50589672,12.4770417 1.10076468,12.4770417 C0.695632634,12.4770417 0.366841285,12.1482503 0.366841285,11.7431183 C0.366841285,11.3379863 0.695632634,11.0091605 1.10076468,11.0091605 C1.50589672,11.0091605 1.83468807,11.3379863 1.83468807,11.7431183" id="Fill-6"></path>
                    </g>
                </g>
            </g>
        </g>
    </g>
</svg>