<?xml version="1.0" encoding="UTF-8"?>
<svg width="20px" height="19px" viewBox="0 0 20 19" version="1.1" xmlns="http://www.w3.org/2000/svg" xmlns:xlink="http://www.w3.org/1999/xlink">
    <title>Shape</title>
    <g id="Page-1" stroke="none" stroke-width="1" fill="none" fill-rule="evenodd">
        <g id="Accueil" transform="translate(-339.000000, -20.000000)" fill="#FFFFFF" fill-rule="nonzero">
            <g id="Header-Bar" transform="translate(0.000000, -18.000000)">
                <g id="icons8-star" transform="translate(339.000000, 37.999986)">
                    <path d="M10.0048831,1.4460454e-05 C9.71891774,-0.00175623281 9.4568177,0.159213259 9.32908868,0.41507022 L6.75286758,5.56743912 L0.635563696,6.50884968 C0.356350566,6.55199357 0.125065571,6.74836541 0.0372090104,7.01688095 C-0.05064755,7.28539649 0.0198297943,7.58050022 0.219540117,7.78034033 L4.45106621,12.0118063 L3.50866525,18.135859 C3.46567358,18.4152524 3.58341309,18.6950874 3.81322062,18.8597049 C4.04302814,19.0243223 4.34586942,19.0457609 4.59657649,18.9151597 L10,16.0958101 L15.4034234,18.9151597 C15.6541305,19.0457609 15.9569718,19.0243223 16.1867793,18.8597049 C16.4165868,18.6950874 16.5343263,18.4152524 16.4913347,18.135859 L15.5489337,12.0118063 L19.7804599,7.78034033 C19.9801702,7.58050024 20.0506475,7.28539653 19.962791,7.016881 C19.8749345,6.74836547 19.6436495,6.55199361 19.3644364,6.50884968 L13.2471323,5.56743912 L10.6709113,0.41507022 C10.5447544,0.162360072 10.2873297,0.0019437172 10.0048831,1.4460454e-05 L10.0048831,1.4460454e-05 Z M10.0666667,1.00001446 L12.5234483,5.88436004 C12.6518679,6.14005438 12.8970728,6.31794684 13.1812055,6.36155303 L19.1333333,7.27234911 L15.0529294,11.3284895 C14.8532682,11.526975 14.7606961,11.8081523 14.803674,12.0855748 L15.7187645,18.0000145 L10.4763224,15.2813911 C10.2196068,15.1483855 9.91372654,15.1483855 9.65701098,15.2813911 L4.4145689,18.0000145 L5.32965941,12.0855748 C5.3726373,11.8081523 5.28006518,11.526975 5.08040397,11.3284895 L1,7.27234911 L6.95212785,6.36155303 C7.23626059,6.31794684 7.48146549,6.14005438 7.60988512,5.88436004 L10.0666667,1.00001446 Z" id="Shape"></path>
                </g>
            </g>
        </g>
    </g>
</svg>